<?xml version="1.0" encoding="UTF-8"?>
<svg xmlns="http://www.w3.org/2000/svg" xmlns:xlink="http://www.w3.org/1999/xlink" viewBox="0 0 12.75 11.49">
  <defs>
    <style>
      .cls-1 {
        fill: #b59acd;
      }

      .cls-2 {
        fill: #faedf8;
      }

      .cls-3 {
        isolation: isolate;
      }

      .cls-4 {
        fill: url(#linear-gradient);
        mix-blend-mode: overlay;
      }

      .cls-5 {
        fill: #16111a;
      }
    </style>
    <linearGradient id="linear-gradient" x1="6.2" y1="1.84" x2="6.63" y2="7.53" gradientUnits="userSpaceOnUse">
      <stop offset="0" stop-color="#fff"/>
      <stop offset=".01" stop-color="#fff" stop-opacity=".98"/>
      <stop offset=".11" stop-color="#fff" stop-opacity=".75"/>
      <stop offset=".21" stop-color="#fff" stop-opacity=".55"/>
      <stop offset=".31" stop-color="#fff" stop-opacity=".38"/>
      <stop offset=".41" stop-color="#fff" stop-opacity=".24"/>
      <stop offset=".52" stop-color="#fff" stop-opacity=".14"/>
      <stop offset=".62" stop-color="#fff" stop-opacity=".06"/>
      <stop offset=".72" stop-color="#fff" stop-opacity=".02"/>
      <stop offset=".83" stop-color="#fff" stop-opacity="0"/>
    </linearGradient>
  </defs>
  <g class="cls-3">
    <g id="Layer_2" data-name="Layer 2">
      <g id="Layer_1-2" data-name="Layer 1">
        <g>
          <g>
            <g>
              <path class="cls-2" d="M6.38,10.58c-.14,0-.28-.03-.41-.1-.05-.03-4.93-2.62-5.05-6.13-.03-.94.29-1.81.9-2.44.61-.63,1.47-.99,2.36-.99.76,0,1.58.29,2.2.9.61-.61,1.43-.9,2.2-.9.89,0,1.75.36,2.36.99.61.63.93,1.5.9,2.44-.11,3.31-4.51,5.84-5.01,6.12-.14.08-.29.12-.44.12Z"/>
              <path class="cls-5" d="M8.57,1.84c1.19,0,2.39.89,2.34,2.48-.09,2.9-4.52,5.33-4.54,5.34h0s0,0,0,0h0s0,0,0,0c-.02,0-4.44-2.44-4.54-5.34-.05-1.59,1.15-2.48,2.34-2.48.99,0,1.96.62,2.2,1.96.23-1.34,1.21-1.96,2.2-1.96M8.57,0C7.75,0,7,.23,6.38.63,5.75.23,5,0,4.18,0,3.04,0,1.94.46,1.16,1.27.37,2.08-.04,3.18,0,4.38c.12,3.84,4.94,6.59,5.49,6.89.28.15.58.23.89.23s.62-.08.9-.24c.9-.5,5.35-3.18,5.47-6.88.04-1.19-.37-2.3-1.16-3.11C10.81.46,9.71,0,8.57,0h0Z"/>
            </g>
            <g>
              <path class="cls-1" d="M6.38,9.89s-.07,0-.1-.02c-.05-.02-4.57-2.52-4.67-5.54-.02-.77.22-1.44.7-1.94.48-.5,1.16-.78,1.87-.78.78,0,1.73.38,2.2,1.4.47-1.02,1.42-1.4,2.2-1.4.71,0,1.39.28,1.87.78.49.5.73,1.17.7,1.94-.1,2.98-4.47,5.43-4.65,5.54-.04.02-.07.03-.11.03Z"/>
              <path class="cls-2" d="M8.57,1.84c1.19,0,2.39.89,2.34,2.48-.09,2.9-4.52,5.33-4.54,5.34h0s0,0,0,0h0s0,0,0,0c-.02,0-4.44-2.44-4.54-5.34-.05-1.59,1.15-2.48,2.34-2.48.99,0,1.96.62,2.2,1.96.23-1.34,1.21-1.96,2.2-1.96M8.57,1.37c-.93,0-1.72.43-2.2,1.16-.48-.73-1.26-1.16-2.2-1.16-.77,0-1.51.31-2.03.85-.53.55-.8,1.28-.77,2.11.1,3.14,4.59,5.63,4.78,5.73.07.04.15.06.23.06.08,0,.17-.02.24-.07.47-.26,4.66-2.7,4.76-5.72.03-.83-.24-1.56-.77-2.11-.52-.54-1.26-.85-2.03-.85h0Z"/>
            </g>
          </g>
          <path class="cls-4" d="M6.38,4.27c-.97-3.72-4.95-1.99-4.24.61.65,2.4,4.07,4.01,4.23,4.08h0s0,0,0,0c0,0,0,0,0,0h0c.16-.08,3.58-1.69,4.23-4.09.71-2.59-3.27-4.33-4.24-.61Z"/>
        </g>
      </g>
    </g>
  </g>
</svg>