<?xml version="1.0" encoding="UTF-8"?>
<svg xmlns="http://www.w3.org/2000/svg" xmlns:xlink="http://www.w3.org/1999/xlink" viewBox="0 0 20.81 25.44">
  <defs>
    <style>
      .cls-1 {
        fill: #ab84c4;
      }

      .cls-2 {
        isolation: isolate;
      }

      .cls-3 {
        fill: url(#linear-gradient);
        mix-blend-mode: overlay;
      }

      .cls-4 {
        fill: #16111a;
      }
    </style>
    <linearGradient id="linear-gradient" x1="1.7" y1="-1.45" x2="9.75" y2="18.07" gradientUnits="userSpaceOnUse">
      <stop offset=".15" stop-color="#e8c4ff"/>
      <stop offset="1" stop-color="#ca78ff" stop-opacity="0"/>
    </linearGradient>
  </defs>
  <g class="cls-2">
    <g id="Layer_2" data-name="Layer 2">
      <g id="Layer_1-2" data-name="Layer 1">
        <g>
          <g>
            <path class="cls-1" d="M1.72,24.58c-.1,0-.21-.02-.31-.06-.34-.13-.56-.45-.55-.82L1.17,1.7c0-.33.2-.63.5-.77.12-.05.24-.08.36-.08.19,0,.39.07.54.19l17.06,13.9c.28.23.39.61.27.95-.12.34-.44.57-.8.58l-10.13.14-6.61,7.67c-.17.19-.41.3-.65.3Z"/>
            <path class="cls-4" d="M2.03,1.72l17.06,13.9h0s-10.51.15-10.51.15l-6.87,7.96L2.03,1.72M2.03,0c-.25,0-.49.05-.73.16C.71.44.32,1.03.31,1.69L0,23.7c-.01.72.43,1.37,1.11,1.63.2.08.41.11.61.11.49,0,.97-.21,1.3-.6l6.36-7.37,9.74-.13c.72-.01,1.36-.47,1.6-1.15s.02-1.44-.54-1.9L3.12.39c-.31-.25-.7-.39-1.09-.39h0Z"/>
          </g>
          <polygon class="cls-3" points="2.24 22.44 2.43 2.66 17.85 15.16 8.35 15.12 2.24 22.44"/>
        </g>
      </g>
    </g>
  </g>
</svg>