<?xml version="1.0" encoding="UTF-8"?>
<svg id="Layer_2" data-name="Layer 2" xmlns="http://www.w3.org/2000/svg" viewBox="0 0 22.82 19.83">
  <defs>
    <style>
      .cls-1 {
        fill: #faedf8;
      }

      .cls-2 {
        fill: #ab84c4;
      }

      .cls-3 {
        fill: #744bb3;
      }

      .cls-4 {
        fill: #16111a;
      }
    </style>
  </defs>
  <g id="Layer_1-2" data-name="Layer 1">
    <g>
      <g>
        <path class="cls-1" d="M4.11,19.09c-.12,0-.24-.03-.36-.09-.27-.15-.42-.44-.38-.74l.28-2.36h-1.02c-1.04,0-1.89-.85-1.89-1.89V2.63c0-1.04.85-1.89,1.89-1.89h17.55c1.04,0,1.89.85,1.89,1.89v11.37c0,1.04-.85,1.89-1.89,1.89h-11.93l-3.67,3.02c-.14.11-.3.17-.47.17Z"/>
        <path class="cls-4" d="M20.18,1.48c.64,0,1.15.52,1.15,1.15v11.37c0,.64-.52,1.15-1.15,1.15H7.99l-3.88,3.19.38-3.19h-1.85c-.64,0-1.15-.52-1.15-1.15V2.63c0-.64.52-1.15,1.15-1.15h17.55M20.18,0H2.63C1.18,0,0,1.18,0,2.63v11.37c0,1.45,1.18,2.63,2.63,2.63h.19l-.18,1.53c-.07.6.23,1.18.76,1.47.22.12.47.18.71.18.34,0,.67-.11.94-.34l3.47-2.85h11.67c1.45,0,2.63-1.18,2.63-2.63V2.63c0-1.45-1.18-2.63-2.63-2.63h0Z"/>
      </g>
      <g>
        <path class="cls-1" d="M4.11,18.72c-.06,0-.12-.01-.18-.04-.13-.07-.21-.22-.19-.37l.33-2.77h-1.44c-.84,0-1.52-.68-1.52-1.52V2.63c0-.84.68-1.52,1.52-1.52h17.55c.84,0,1.52.68,1.52,1.52v11.37c0,.84-.68,1.52-1.52,1.52h-12.06l-3.77,3.1c-.07.06-.15.08-.24.08Z"/>
        <path class="cls-3" d="M20.18,1.48c.64,0,1.15.52,1.15,1.15v11.37c0,.64-.52,1.15-1.15,1.15H7.99l-3.88,3.19.38-3.19h-1.85c-.64,0-1.15-.52-1.15-1.15V2.63c0-.64.52-1.15,1.15-1.15h17.55M20.18.74H2.63c-1.04,0-1.89.85-1.89,1.89v11.37c0,1.04.85,1.89,1.89,1.89h1.02l-.28,2.36c-.04.3.12.59.38.74.11.06.23.09.36.09.17,0,.33-.06.47-.17l3.67-3.02h11.93c1.04,0,1.89-.85,1.89-1.89V2.63c0-1.04-.85-1.89-1.89-1.89h0Z"/>
      </g>
      <g>
        <rect class="cls-2" x="4.18" y="7.51" width="2.98" height="2.98"/>
        <rect class="cls-2" x="10.2" y="7.51" width="2.98" height="2.98"/>
        <rect class="cls-2" x="16.23" y="7.51" width="2.98" height="2.98"/>
      </g>
    </g>
  </g>
</svg>