<?xml version="1.0" encoding="UTF-8"?>
<svg xmlns="http://www.w3.org/2000/svg" xmlns:xlink="http://www.w3.org/1999/xlink" viewBox="0 0 27.77 21.55">
  <defs>
    <style>
      .cls-1 {
        fill: url(#linear-gradient-8);
      }

      .cls-2 {
        fill: url(#linear-gradient-5);
      }

      .cls-3 {
        fill: url(#linear-gradient-3);
      }

      .cls-4 {
        fill: url(#linear-gradient);
      }

      .cls-5 {
        isolation: isolate;
      }

      .cls-6 {
        fill: url(#linear-gradient-2);
      }

      .cls-6, .cls-7, .cls-8, .cls-9, .cls-10, .cls-11, .cls-12, .cls-13 {
        mix-blend-mode: overlay;
      }

      .cls-7 {
        fill: url(#linear-gradient-4);
      }

      .cls-8 {
        fill: url(#linear-gradient-9);
      }

      .cls-9 {
        fill: url(#linear-gradient-6);
      }

      .cls-10 {
        fill: url(#linear-gradient-7);
      }

      .cls-11 {
        fill: url(#linear-gradient-10);
      }

      .cls-12 {
        fill: url(#linear-gradient-12);
      }

      .cls-14 {
        fill: url(#linear-gradient-11);
      }

      .cls-13 {
        fill: #13151c;
        opacity: .36;
      }

      .cls-15 {
        fill: #16111a;
      }
    </style>
    <linearGradient id="linear-gradient" x1="8.84" y1="5.16" x2="9.94" y2="25.86" gradientUnits="userSpaceOnUse">
      <stop offset=".11" stop-color="#2c273b"/>
      <stop offset=".48" stop-color="#272034"/>
      <stop offset="1" stop-color="#1b0e24"/>
    </linearGradient>
    <linearGradient id="linear-gradient-2" x1="7.33" y1="19.41" x2="11.6" y2="8.31" gradientUnits="userSpaceOnUse">
      <stop offset="0" stop-color="#fff"/>
      <stop offset=".83" stop-color="#fff" stop-opacity="0"/>
    </linearGradient>
    <linearGradient id="linear-gradient-3" x1="17.36" y1="4.68" x2="18.46" y2="25.36" xlink:href="#linear-gradient"/>
    <linearGradient id="linear-gradient-4" x1="16.11" y1="19.41" x2="20.38" y2="8.31" gradientTransform="translate(35.94) rotate(-180) scale(1 -1)" xlink:href="#linear-gradient-2"/>
    <linearGradient id="linear-gradient-5" x1="6.33" y1="6" x2="7.43" y2="26.54" xlink:href="#linear-gradient"/>
    <linearGradient id="linear-gradient-6" x1="6.28" y1="-21.17" x2="6.82" y2="58.77" xlink:href="#linear-gradient-2"/>
    <linearGradient id="linear-gradient-7" x1="3.71" y1="2.19" x2="3.79" y2="14.31" xlink:href="#linear-gradient-2"/>
    <linearGradient id="linear-gradient-8" x1="21.13" y1="5.12" x2="22.22" y2="25.66" xlink:href="#linear-gradient"/>
    <linearGradient id="linear-gradient-9" x1="10.04" y1="-21.17" x2="10.58" y2="58.77" gradientTransform="translate(31.52) rotate(-180) scale(1 -1)" xlink:href="#linear-gradient-2"/>
    <linearGradient id="linear-gradient-10" x1="7.47" y1="2.19" x2="7.55" y2="14.31" gradientTransform="translate(31.52) rotate(-180) scale(1 -1)" xlink:href="#linear-gradient-2"/>
    <linearGradient id="linear-gradient-11" x1="13.97" y1="5.34" x2="15.19" y2="28.12" xlink:href="#linear-gradient"/>
    <linearGradient id="linear-gradient-12" x1="13.98" y1="-5.85" x2="14.23" y2="30.84" xlink:href="#linear-gradient-2"/>
  </defs>
  <g class="cls-5">
    <g id="Layer_2" data-name="Layer 2">
      <g id="Layer_1-2" data-name="Layer 1">
        <g>
          <g>
            <g>
              <path class="cls-4" d="M9.58,21.09s-.1,0-.14-.02c-.18-.06-.25-.18-.42-.46-.22-.37-.67-1.14-1.18-1.51-.4-.29-1.22-.59-1.82-.8-.31-.11-.58-.21-.75-.29-.05-.02-.09-.04-.13-.06-.23-.15-.27-.32-.27-.45,0-.21,0-.3,4.18-6.9l.73-1.15s.04-.06.07-.08c.02-.07.08-.14.08-.14.09-.12.23-.18.37-.18.04,0,.09,0,.13.02l2.81.88.2.07c.24.09.36.35.28.59,0,0-1.37,3.87-2.44,6.83q-1.31,3.65-1.7,3.65Z"/>
              <path class="cls-15" d="M10.29,9.5l2.81.88.18.06s-1.37,3.86-2.44,6.83c-.67,1.85-1.23,3.35-1.27,3.35-.08-.03-.68-1.33-1.47-1.91-.68-.5-2.25-.93-2.67-1.15h-.01c-.05-.04-.09-.05-.09-.08,0-.2,4.08-6.6,4.84-7.8l.04-.04c.05-.1.09-.15.09-.15M10.31,8.58c-.29,0-.57.14-.75.36,0,0-.04.05-.11.17-.02.03-.04.06-.06.09-.14.22-.4.63-.72,1.15-4.25,6.71-4.25,6.77-4.25,7.15,0,.19.06.56.47.82.08.06.17.1.26.13.19.08.43.17.73.28.54.19,1.36.49,1.7.74.43.31.85,1.03,1.05,1.37.18.31.32.55.67.66.09.03.19.05.29.05q.71,0,2.13-3.96c1.07-2.97,2.44-6.83,2.44-6.83.17-.48-.08-1-.56-1.17l-.18-.06-2.85-.89c-.08-.03-.17-.04-.26-.04h0Z"/>
            </g>
            <path class="cls-13" d="M13.29,10.45s-1.37,3.86-2.44,6.83c-.18-1.14-.47-2.1-.93-2.47-.99-.79-3.16,1.29-4.48,2.76h-.01c-.05-.04-.09-.05-.09-.08,0-.23,4.96-8,4.96-8l2.99.95Z"/>
            <path class="cls-6" d="M13.29,10.45s-1.37,3.86-2.44,6.83c-.67,1.85-1.23,3.35-1.27,3.35-.08-.03-.68-1.33-1.47-1.91-.68-.5-2.25-.93-2.67-1.15h-.01c-.05-.04-.09-.05-.09-.08,0-.2,4.08-6.6,4.84-7.8l-4.23,7.62s1.88.46,2.21.7c.32.24,1.38,1.69,1.38,1.69l3.58-9.33.18.06Z"/>
          </g>
          <g>
            <g>
              <path class="cls-3" d="M17.59,21.09q-.39,0-1.7-3.66c-1.07-2.97-2.44-6.83-2.44-6.83-.08-.24.04-.5.28-.59l.18-.06,2.83-.89s.09-.02.13-.02c.14,0,.28.07.37.18,0,0,.04.05.1.16.02.02.04.05.05.06l.73,1.15c4.18,6.6,4.18,6.69,4.18,6.9,0,.16-.13.35-.26.43-.03.02-.09.05-.09.05-.15.08-.45.19-.8.31-.6.21-1.42.51-1.81.8-.5.37-.96,1.14-1.18,1.51-.17.28-.24.4-.42.46-.05.01-.1.02-.14.02Z"/>
              <path class="cls-15" d="M16.87,9.5s.04.05.09.15l.04.04c.75,1.2,4.84,7.6,4.84,7.8,0,.03-.04.04-.09.08h-.01c-.42.22-2,.65-2.67,1.15-.79.58-1.39,1.88-1.47,1.91-.04,0-.6-1.5-1.27-3.35-1.07-2.97-2.44-6.83-2.44-6.83l.18-.06,2.81-.88M16.85,8.58c-.09,0-.17.01-.26.04l-2.81.88-.21.08c-.48.17-.73.69-.56,1.17,0,0,1.37,3.87,2.45,6.84q1.42,3.96,2.13,3.96c.1,0,.2-.02.29-.05.35-.12.49-.36.67-.66.2-.34.62-1.06,1.05-1.37.35-.26,1.16-.55,1.7-.74.32-.11.57-.21.76-.29.08-.03.16-.07.23-.12.4-.25.46-.62.46-.81,0-.38,0-.43-4.25-7.15-.33-.51-.58-.92-.72-1.15-.02-.03-.04-.06-.06-.09-.06-.11-.11-.17-.11-.17-.18-.23-.47-.36-.75-.36h0Z"/>
            </g>
            <path class="cls-13" d="M13.88,10.45s1.37,3.86,2.44,6.83c.18-1.14.47-2.1.93-2.47.99-.79,3.16,1.29,4.48,2.76h.01c.05-.04.09-.05.09-.08,0-.23-4.96-8-4.96-8l-2.99.95Z"/>
            <path class="cls-7" d="M13.88,10.45s1.37,3.86,2.44,6.83c.67,1.85,1.23,3.35,1.27,3.35.08-.03.68-1.33,1.47-1.91.68-.5,2.25-.93,2.67-1.15h.01c.05-.04.09-.05.09-.08,0-.2-4.08-6.6-4.84-7.8l4.23,7.62s-1.88.46-2.21.7c-.32.24-1.38,1.69-1.38,1.69l-3.58-9.33-.18.06Z"/>
          </g>
          <g>
            <g>
              <path class="cls-2" d="M3.58,13.63c-1.04,0-1.73-.34-2.06-1.01-.01-.02-.06-.13-.06-.15C.4,10.23-.12,4.7,1.39,2.03c.02-.03.04-.06.06-.09.47-.79,1.09-1.27,1.85-1.44.14-.03.29-.04.45-.04,1.13,0,2.95.75,5.41,2.24.02,0,.04.02.04.02,1.56.95,2.82,1.84,2.83,1.85.11.08.19.21.19.35l.28,5.08v.14c0,.17-.09.32-.24.4-.23.13-5.66,3.09-8.69,3.09Z"/>
              <path class="cls-15" d="M3.74.92c1.26,0,3.44,1.12,5.19,2.18.01,0,.03.01.03.01,1.56.95,2.8,1.83,2.8,1.83l.28,5.08v.12s-5.52,3.03-8.47,3.03c-.78,0-1.38-.21-1.65-.75-.01-.03-.03-.05-.04-.09-.99-2.1-1.54-7.54-.1-10.07h.01c.38-.68.91-1.15,1.6-1.3.11-.02.22-.03.35-.03M3.74,0h0c-.19,0-.37.02-.54.05-.87.19-1.6.75-2.13,1.62-.03.04-.06.08-.09.13-1.57,2.77-1.05,8.47.05,10.87.02.06.04.11.07.15.29.57.95,1.26,2.47,1.26,3.15,0,8.68-3.01,8.91-3.14.29-.16.48-.47.48-.81v-.12s0-.03,0-.05l-.28-5.08c-.02-.28-.16-.54-.38-.7-.05-.04-1.29-.91-2.86-1.87h0s-.04-.02-.06-.03C6.85.77,4.95,0,3.74,0h0Z"/>
            </g>
            <path class="cls-13" d="M12.05,10.14S3.21,14.99,1.93,12.42c-.01-.03-.03-.05-.04-.09,4.21-.31,7.36-5.72,3.94-8.9-1.33-1.23-2.75-1.42-4.03-1.16.38-.68.91-1.15,1.6-1.3,2.14-.46,8.37,3.99,8.37,3.99l.28,5.19Z"/>
            <g>
              <path class="cls-9" d="M2.34,10.78c-.21-1.5-.32-3.14-.28-4.61.11.08.22.12.35.12.49,0,.89-.69.89-1.54s-.38-1.49-.85-1.53c.28-.97.72-1.63,1.36-1.73.91-.14,3.11.69,5.13,1.61C7,1.94,4.57.7,3.4.95c-.69.15-1.22.63-1.6,1.3h-.01c-1.43,2.53-.88,7.97.1,10.07.01.04.03.06.04.09,1.28,2.57,10.12-2.28,10.12-2.28v-.12c-1.85.91-9.21,4.27-9.71.75Z"/>
              <path class="cls-10" d="M3.74,5.54c-.29,0-.53.42-.53.93s.24.93.53.93.53-.42.53-.93-.24-.93-.53-.93Z"/>
            </g>
          </g>
          <g>
            <g>
              <path class="cls-1" d="M24.19,13.63c-3.03,0-8.46-2.96-8.69-3.09-.15-.08-.24-.23-.24-.4v-.11l.28-5.1c0-.14.08-.27.19-.35.01,0,1.27-.9,2.83-1.85,0,0,.03-.02.04-.02,2.47-1.49,4.29-2.24,5.42-2.24.16,0,.31.01.44.04.76.17,1.39.66,1.85,1.45.02.03.04.05.06.08,1.51,2.67.99,8.2-.09,10.49,0,0-.04.1-.04.1-.33.67-1.03,1.01-2.06,1.01h0Z"/>
              <path class="cls-15" d="M24.02.92c.12,0,.24.01.35.03.69.15,1.22.63,1.6,1.3h.01c1.43,2.53.88,7.97-.1,10.07-.01.04-.03.06-.04.09-.27.54-.87.75-1.65.75-2.95,0-8.47-3.03-8.47-3.03v-.12l.28-5.08s1.24-.88,2.8-1.83c0,0,.01-.01.03-.01,1.76-1.06,3.93-2.18,5.19-2.18M24.02,0c-1.21,0-3.1.77-5.64,2.3-.02.01-.04.02-.06.03h0c-1.57.95-2.81,1.83-2.86,1.87-.23.16-.37.42-.38.7l-.28,5.08s0,.03,0,.05v.12c0,.34.18.64.48.81.23.13,5.77,3.14,8.91,3.14,1.52,0,2.19-.69,2.47-1.26.02-.04.04-.09.07-.15,1.1-2.4,1.62-8.1.05-10.87-.03-.05-.06-.09-.09-.13-.53-.87-1.26-1.43-2.12-1.62-.17-.04-.35-.06-.55-.06h0Z"/>
            </g>
            <path class="cls-13" d="M15.72,10.14s8.84,4.85,10.12,2.28c.01-.03.03-.05.04-.09-4.21-.31-7.36-5.72-3.94-8.9,1.33-1.23,2.75-1.42,4.03-1.16-.38-.68-.91-1.15-1.6-1.3-2.14-.46-8.37,3.99-8.37,3.99l-.28,5.19Z"/>
            <g>
              <path class="cls-8" d="M25.43,10.78c.21-1.5.32-3.14.28-4.61-.11.08-.22.12-.35.12-.49,0-.89-.69-.89-1.54s.38-1.49.85-1.53c-.28-.97-.72-1.63-1.36-1.73-.91-.14-3.11.69-5.13,1.61,1.93-1.16,4.36-2.41,5.54-2.15.69.15,1.22.63,1.6,1.3h.01c1.43,2.53.88,7.97-.1,10.07-.01.04-.03.06-.04.09-1.28,2.57-10.12-2.28-10.12-2.28v-.12c1.85.91,9.21,4.27,9.71.75Z"/>
              <path class="cls-11" d="M24.02,5.54c.29,0,.53.42.53.93,0,.51-.24.93-.53.93s-.53-.42-.53-.93c0-.51.24-.93.53-.93Z"/>
            </g>
          </g>
          <g>
            <g>
              <path class="cls-14" d="M12.92,10.87c-.54,0-1.07-.16-1.52-.46-.79-.49-1.3-1.4-1.3-2.37v-1.52c0-1.55,1.26-2.81,2.81-2.81h2.32c.62,0,1.21.2,1.7.59.69.49,1.12,1.33,1.12,2.23v1.52c0,.83-.36,1.61-.98,2.13-.5.45-1.14.7-1.84.7h-2.32Z"/>
              <path class="cls-15" d="M15.23,4.29c.5,0,.96.17,1.33.46.54.38.9,1.04.9,1.77v1.52c0,.68-.29,1.28-.77,1.68-.4.36-.9.56-1.46.56h-2.32c-.43,0-.84-.13-1.19-.36-.63-.38-1.04-1.09-1.04-1.88v-1.52c0-1.23,1-2.23,2.23-2.23h2.32M15.23,3.12h-2.32c-1.88,0-3.4,1.53-3.4,3.4v1.52c0,1.17.61,2.28,1.6,2.88.51.34,1.14.53,1.8.53h2.32c.84,0,1.62-.3,2.25-.87.72-.6,1.16-1.54,1.16-2.55v-1.52c0-1.07-.51-2.08-1.36-2.7-.59-.46-1.29-.7-2.04-.7h0Z"/>
            </g>
            <path class="cls-13" d="M17.46,6.52v1.52c0,1.24-1,2.24-2.23,2.24h-2.32c-1.23,0-2.23-1-2.23-2.24v-.81c.52-.01,1.05-.06,1.59-.13,2.35-.32,3.63-1.24,4.29-2.35.54.38.9,1.04.9,1.77Z"/>
            <path class="cls-12" d="M17.46,6.52v1.52c0,.68-.29,1.28-.77,1.68.19-.38.35-.87.41-1.43.2-1.96-.12-3.57-2.97-3.58-2.84-.03-3.2,1.93-2.98,3.33.12.65.35,1.34.58,1.89-.63-.38-1.04-1.09-1.04-1.88v-1.52c0-1.23,1-2.23,2.23-2.23h2.32c.5,0,.96.17,1.33.46.54.38.9,1.04.9,1.77Z"/>
          </g>
        </g>
      </g>
    </g>
  </g>
</svg>