<?xml version="1.0" encoding="UTF-8"?>
<svg id="Layer_2" data-name="Layer 2" xmlns="http://www.w3.org/2000/svg" xmlns:xlink="http://www.w3.org/1999/xlink" viewBox="0 0 60.41 46.23">
  <defs>
    <style>
      .cls-1 {
        fill: url(#linear-gradient-8);
      }

      .cls-2 {
        fill: url(#linear-gradient-7);
      }

      .cls-3 {
        fill: url(#linear-gradient-5);
      }

      .cls-4 {
        fill: url(#linear-gradient-6);
      }

      .cls-5 {
        fill: url(#linear-gradient-9);
      }

      .cls-6 {
        fill: url(#linear-gradient-4);
      }

      .cls-7 {
        fill: url(#linear-gradient-3);
      }

      .cls-8 {
        fill: url(#linear-gradient-2);
      }

      .cls-9 {
        fill: #744bb3;
      }

      .cls-10 {
        fill: url(#linear-gradient);
      }

      .cls-11 {
        fill: url(#linear-gradient-10);
      }

      .cls-12 {
        fill: url(#linear-gradient-11);
      }

      .cls-13 {
        fill: url(#linear-gradient-12);
      }

      .cls-14 {
        fill: url(#linear-gradient-13);
      }

      .cls-15 {
        fill: url(#linear-gradient-19);
      }

      .cls-16 {
        fill: url(#linear-gradient-14);
      }

      .cls-17 {
        fill: url(#linear-gradient-21);
      }

      .cls-18 {
        fill: url(#linear-gradient-20);
      }

      .cls-19 {
        fill: url(#linear-gradient-22);
      }

      .cls-20 {
        fill: url(#linear-gradient-15);
      }

      .cls-21 {
        fill: url(#linear-gradient-16);
      }

      .cls-22 {
        fill: url(#linear-gradient-17);
      }

      .cls-23 {
        fill: url(#linear-gradient-18);
      }

      .cls-24 {
        fill: #16111a;
      }
    </style>
    <linearGradient id="linear-gradient" x1=".28" y1="37.24" x2="6.69" y2="37.24" gradientUnits="userSpaceOnUse">
      <stop offset=".11" stop-color="#8971a8"/>
      <stop offset=".46" stop-color="#8f74ad"/>
      <stop offset=".96" stop-color="#a27dbb"/>
      <stop offset="1" stop-color="#a47fbd"/>
    </linearGradient>
    <linearGradient id="linear-gradient-2" x1=".57" y1="27.21" x2="6.97" y2="27.21" xlink:href="#linear-gradient"/>
    <linearGradient id="linear-gradient-3" x1=".43" y1="17.26" x2="6.84" y2="17.26" xlink:href="#linear-gradient"/>
    <linearGradient id="linear-gradient-4" x1=".3" y1="7.84" x2="6.7" y2="7.84" xlink:href="#linear-gradient"/>
    <linearGradient id="linear-gradient-5" x1="2.49" y1="42.65" x2="4.44" y2="42.65" xlink:href="#linear-gradient"/>
    <linearGradient id="linear-gradient-6" x1="2.59" y1="12.43" x2="4.54" y2="12.43" xlink:href="#linear-gradient"/>
    <linearGradient id="linear-gradient-7" x1="2.6" y1="22.17" x2="4.55" y2="22.17" xlink:href="#linear-gradient"/>
    <linearGradient id="linear-gradient-8" x1="2.6" y1="32.08" x2="4.55" y2="32.08" xlink:href="#linear-gradient"/>
    <linearGradient id="linear-gradient-9" x1="2.59" y1="3.58" x2="4.54" y2="3.58" xlink:href="#linear-gradient"/>
    <linearGradient id="linear-gradient-10" x1="36.56" y1="34.65" x2="45.16" y2="34.65" xlink:href="#linear-gradient"/>
    <linearGradient id="linear-gradient-11" x1="44.75" y1="30.08" x2="53.07" y2="30.08" xlink:href="#linear-gradient"/>
    <linearGradient id="linear-gradient-12" x1="51.9" y1="23.25" x2="60.13" y2="23.25" xlink:href="#linear-gradient"/>
    <linearGradient id="linear-gradient-13" x1="17.85" y1="34.65" x2="26.45" y2="34.65" xlink:href="#linear-gradient"/>
    <linearGradient id="linear-gradient-14" x1="9.94" y1="30.08" x2="18.27" y2="30.08" xlink:href="#linear-gradient"/>
    <linearGradient id="linear-gradient-15" x1="2.88" y1="23.25" x2="11.11" y2="23.25" xlink:href="#linear-gradient"/>
    <linearGradient id="linear-gradient-16" x1="27.09" y1="36.41" x2="35.93" y2="36.41" xlink:href="#linear-gradient"/>
    <linearGradient id="linear-gradient-17" x1="747.79" y1="-123.13" x2="752.34" y2="-123.13" gradientTransform="translate(-534.6 -462.88) rotate(49.5) scale(1 .9)" xlink:href="#linear-gradient"/>
    <linearGradient id="linear-gradient-18" x1="649.52" y1="-95.74" x2="653.78" y2="-95.74" gradientTransform="translate(-524.01 -298.98) rotate(38.59)" xlink:href="#linear-gradient"/>
    <linearGradient id="linear-gradient-19" x1="525.3" y1="-136" x2="529.56" y2="-136" gradientTransform="translate(-485.43 -60.73) rotate(23.69)" xlink:href="#linear-gradient"/>
    <linearGradient id="linear-gradient-20" x1="397.64" y1="-247.8" x2="404.42" y2="-247.8" gradientTransform="translate(-334.32 348.69) rotate(-11.16) scale(.88 .98) skewX(-13.58)" xlink:href="#linear-gradient"/>
    <linearGradient id="linear-gradient-21" x1="545.3" y1="-229.13" x2="551.99" y2="-229.13" gradientTransform="translate(-572.93 140.94) rotate(11.57)" xlink:href="#linear-gradient"/>
    <linearGradient id="linear-gradient-22" x1="577.41" y1="-20.11" x2="584.88" y2="-20.11" gradientTransform="translate(-450.86 -135.59) rotate(22.01) scale(.87 1)" xlink:href="#linear-gradient"/>
  </defs>
  <g id="Layer_1-2" data-name="Layer 1">
    <g>
      <g>
        <g>
          <path class="cls-10" d="M2.73,41.66c-1.38-.06-2.48-1.24-2.44-2.62.04-1.3.05-2.49.04-3.66,0-1.39,1.09-2.52,2.49-2.57,0,0,1.29-.04,1.29-.04,1.46,0,2.58,1.15,2.58,2.57,0,1.23,0,2.53-.04,3.86-.04,1.39-1.17,2.52-2.52,2.52l-1.39-.06ZM4.14,34.52l-1.29.02c-.45,0-.81.38-.81.83,0,1.19,0,2.4-.04,3.71-.01.45.34.83.79.85,0,0,1.28.04,1.29.04.46,0,.83-.37.84-.82.04-1.34.05-2.58.04-3.8,0-.46-.36-.84-.81-.84v-.28.28Z"/>
          <path class="cls-24" d="M4.18,33.05c1.21,0,2.21,1.01,2.22,2.29.01,1.29,0,2.57-.04,3.85-.03,1.26-1.04,2.24-2.24,2.24-.03,0-.06,0-.1,0l-1.28-.05c-1.24-.05-2.2-1.1-2.17-2.33.04-1.23.05-2.45.04-3.67,0-1.22.97-2.24,2.21-2.28l1.29-.04s.05,0,.07,0M4.11,40.26c.59,0,1.08-.48,1.1-1.09.04-1.27.05-2.54.04-3.81,0-.62-.49-1.12-1.09-1.12,0,0-.01,0-.02,0l-1.29.02c-.6.01-1.09.51-1.09,1.12,0,1.23,0,2.47-.04,3.7-.02.61.46,1.12,1.06,1.14l1.28.04s.03,0,.04,0M4.18,32.48h-.09s-1.28.04-1.28.04c-1.56.05-2.77,1.31-2.76,2.86,0,1.17,0,2.36-.04,3.65-.04,1.54,1.18,2.85,2.71,2.92l1.29.05s.08,0,.12,0c1.51,0,2.77-1.25,2.81-2.79.04-1.36.05-2.62.04-3.87,0-1.57-1.26-2.85-2.79-2.85h0ZM4.11,40.26l-.02-.57-1.29-.04c-.29-.01-.52-.26-.51-.56.04-1.31.05-2.53.04-3.72,0-.29.24-.54.53-.54l1.28-.02h0c.3,0,.53.25.53.55,0,1.22,0,2.46-.04,3.8,0,.3-.24.54-.53.54v.57h0Z"/>
        </g>
        <g>
          <path class="cls-8" d="M3.01,31.63c-1.38-.06-2.48-1.24-2.44-2.62.04-1.22.05-2.44.04-3.66,0-1.39,1.09-2.52,2.48-2.57,0,0,1.29-.04,1.29-.04,1.46,0,2.58,1.15,2.58,2.57,0,1.23,0,2.53-.04,3.86-.04,1.39-1.17,2.52-2.52,2.52l-1.39-.06ZM4.42,24.49l-1.29.02c-.45,0-.81.38-.81.83,0,1.19,0,2.4-.04,3.71-.01.45.34.83.79.85l1.28.04c.46,0,.83-.37.84-.82.04-1.31.05-2.59.04-3.8,0-.46-.36-.83-.81-.83v-.28l-.02.28Z"/>
          <path class="cls-24" d="M4.46,23.02c1.21,0,2.21,1.01,2.22,2.29.01,1.29,0,2.57-.04,3.85-.03,1.26-1.04,2.24-2.24,2.24-.03,0-.06,0-.1,0l-1.28-.05c-1.24-.05-2.2-1.1-2.17-2.33.04-1.23.05-2.45.04-3.67,0-1.22.97-2.24,2.21-2.28l1.29-.04s.05,0,.07,0M4.39,30.23c.59,0,1.08-.48,1.1-1.09.04-1.27.05-2.54.04-3.81,0-.62-.49-1.12-1.09-1.12,0,0-.01,0-.02,0l-1.29.02c-.6.01-1.09.51-1.09,1.12,0,1.23,0,2.47-.04,3.7-.02.61.46,1.12,1.06,1.14l1.28.04s.03,0,.04,0M4.46,22.45h-.09s-1.28.04-1.28.04c-1.56.05-2.77,1.31-2.76,2.86,0,1.17,0,2.36-.04,3.65-.04,1.54,1.18,2.85,2.71,2.92l1.29.05s.08,0,.12,0c1.51,0,2.77-1.25,2.81-2.79.04-1.36.05-2.62.04-3.87,0-1.57-1.26-2.85-2.79-2.85h0ZM4.39,30.23l-.02-.57-1.29-.04c-.29-.01-.52-.26-.51-.56.04-1.31.05-2.53.04-3.72,0-.29.24-.54.53-.54l1.28-.02h0c.3,0,.53.25.53.55,0,1.22,0,2.46-.04,3.8,0,.3-.24.54-.53.54v.57h0Z"/>
        </g>
        <g>
          <path class="cls-7" d="M2.88,21.68c-1.38-.06-2.48-1.24-2.44-2.62.04-1.3.05-2.49.04-3.66,0-1.39,1.09-2.52,2.49-2.57,0,0,1.29-.04,1.29-.04,1.46,0,2.58,1.15,2.58,2.57,0,1.23,0,2.53-.04,3.86-.04,1.39-1.17,2.52-2.52,2.52,0,0-1.39-.06-1.39-.06ZM4.29,14.53l-1.29.02c-.45,0-.81.38-.81.83,0,1.19,0,2.4-.04,3.71-.01.45.34.83.79.85,0,0,1.28.04,1.29.04.46,0,.83-.37.84-.82.04-1.34.05-2.58.04-3.8,0-.46-.36-.84-.81-.84v-.28.28Z"/>
          <path class="cls-24" d="M4.33,13.07c1.21,0,2.21,1.01,2.22,2.29.01,1.29,0,2.57-.04,3.85-.03,1.26-1.04,2.24-2.24,2.24-.03,0-.06,0-.1,0l-1.28-.05c-1.24-.05-2.2-1.1-2.17-2.33.04-1.23.05-2.45.04-3.67,0-1.22.97-2.24,2.21-2.28l1.29-.04s.05,0,.07,0M4.26,20.27c.59,0,1.08-.48,1.1-1.09.04-1.27.05-2.54.04-3.81,0-.62-.49-1.12-1.09-1.12,0,0-.01,0-.02,0l-1.29.02c-.6.01-1.09.51-1.09,1.12,0,1.23,0,2.47-.04,3.7-.02.61.46,1.12,1.06,1.14l1.28.04s.03,0,.04,0M4.33,12.5h-.09s-1.28.04-1.28.04c-1.56.05-2.77,1.31-2.76,2.86,0,1.17,0,2.36-.04,3.65-.04,1.54,1.18,2.85,2.71,2.92l1.29.05s.08,0,.12,0c1.51,0,2.77-1.25,2.81-2.79.04-1.36.05-2.62.04-3.87,0-1.57-1.26-2.85-2.79-2.85h0ZM4.26,20.27l-.02-.57-1.29-.04c-.29-.01-.52-.26-.51-.56.04-1.31.05-2.53.04-3.72,0-.29.24-.54.53-.54l1.28-.02h0c.3,0,.53.25.53.55,0,1.22,0,2.46-.04,3.8,0,.3-.24.54-.53.54v.57h0Z"/>
        </g>
        <g>
          <path class="cls-6" d="M2.74,12.26c-1.38-.06-2.48-1.24-2.44-2.63.04-1.3.05-2.49.04-3.66,0-1.39,1.09-2.52,2.49-2.57,0,0,1.29-.04,1.29-.04,1.46,0,2.58,1.15,2.58,2.57,0,1.23,0,2.53-.04,3.86-.04,1.39-1.17,2.52-2.52,2.52l-1.39-.06ZM4.16,5.11l-1.29.02c-.45,0-.81.38-.81.83,0,1.19,0,2.4-.04,3.71-.01.45.34.83.79.85,0,0,1.28.04,1.29.04.47,0,.83-.36.84-.82.04-1.34.05-2.58.04-3.81,0-.46-.36-.83-.81-.83v-.28l-.02.28Z"/>
          <path class="cls-24" d="M4.2,3.65c1.21,0,2.21,1.01,2.22,2.29.01,1.29,0,2.57-.04,3.85-.03,1.26-1.04,2.24-2.24,2.24-.03,0-.06,0-.1,0l-1.28-.05c-1.24-.05-2.2-1.1-2.17-2.33.04-1.23.05-2.45.04-3.67,0-1.22.97-2.24,2.21-2.28l1.29-.04s.05,0,.07,0M4.13,10.86c.59,0,1.08-.48,1.1-1.09.04-1.27.05-2.54.04-3.81,0-.62-.49-1.12-1.09-1.12,0,0-.01,0-.02,0l-1.29.02c-.6.01-1.09.51-1.09,1.12,0,1.23,0,2.47-.04,3.7-.02.61.46,1.12,1.06,1.14l1.28.04s.03,0,.04,0M4.2,3.08h-.09s-1.28.04-1.28.04C1.27,3.17.05,4.43.06,5.98c0,1.17,0,2.36-.04,3.65-.04,1.54,1.18,2.85,2.71,2.92l1.29.05s.08,0,.12,0c1.51,0,2.77-1.25,2.81-2.79.04-1.36.05-2.62.04-3.87,0-1.57-1.26-2.85-2.79-2.85h0ZM4.13,10.86l-.02-.57-1.29-.04c-.29-.01-.52-.26-.51-.56.04-1.31.05-2.53.04-3.72,0-.29.24-.54.53-.54l1.28-.02h0c.3,0,.53.25.53.55,0,1.22,0,2.46-.04,3.8,0,.3-.24.54-.53.54v.57h0Z"/>
        </g>
      </g>
      <g>
        <path class="cls-9" d="M4.18,33.22c1.12,0,2.04.95,2.05,2.12,0,1.24,0,2.5-.04,3.85-.03,1.14-.96,2.07-2.07,2.07h-.09s-1.28-.05-1.28-.05c-1.14-.05-2.04-1.02-2.01-2.16.04-1.3.05-2.5.04-3.67,0-1.15.89-2.07,2.04-2.11l1.29-.04h.07M4.11,40.43h0c.69,0,1.25-.55,1.27-1.26.04-1.34.05-2.59.04-3.82,0-.71-.57-1.29-1.29-1.29h0l-1.29.02c-.7.01-1.26.59-1.25,1.29,0,1.19,0,2.4-.04,3.7-.02.7.53,1.29,1.23,1.32l1.28.04h.04M4.18,33.05s-.05,0-.07,0l-1.29.04c-1.24.04-2.21,1.06-2.21,2.28,0,1.22,0,2.44-.04,3.67-.03,1.23.93,2.28,2.17,2.33l1.28.05s.06,0,.1,0c1.2,0,2.2-.98,2.24-2.24.04-1.28.05-2.56.04-3.85,0-1.27-1.01-2.29-2.22-2.29h0ZM4.11,40.26s-.03,0-.04,0l-1.28-.04c-.6-.02-1.08-.53-1.06-1.14.04-1.24.05-2.47.04-3.7,0-.6.48-1.11,1.09-1.12l1.29-.02s.01,0,.02,0c.6,0,1.09.5,1.09,1.12,0,1.27,0,2.55-.04,3.81-.02.61-.51,1.09-1.1,1.09h0Z"/>
        <path class="cls-9" d="M4.46,23.19c1.12,0,2.04.95,2.05,2.12,0,1.24,0,2.5-.04,3.85-.03,1.14-.96,2.07-2.07,2.07h-.09s-1.28-.05-1.28-.05c-1.14-.05-2.04-1.02-2.01-2.16.04-1.3.05-2.5.04-3.67,0-1.15.89-2.07,2.04-2.11l1.29-.04h.07M4.39,30.4h0c.69,0,1.25-.55,1.27-1.26.04-1.34.05-2.59.04-3.82,0-.71-.57-1.29-1.29-1.29h0l-1.29.02c-.7.01-1.26.59-1.25,1.29,0,1.19,0,2.4-.04,3.7-.02.7.53,1.29,1.23,1.32l1.28.04h.04M4.46,23.02s-.05,0-.07,0l-1.29.04c-1.24.04-2.21,1.06-2.21,2.28,0,1.22,0,2.44-.04,3.67-.03,1.23.93,2.28,2.17,2.33l1.28.05s.06,0,.1,0c1.2,0,2.2-.98,2.24-2.24.04-1.28.05-2.56.04-3.85,0-1.27-1.01-2.29-2.22-2.29h0ZM4.39,30.23s-.03,0-.04,0l-1.28-.04c-.6-.02-1.08-.53-1.06-1.14.04-1.24.05-2.47.04-3.7,0-.6.48-1.11,1.09-1.12l1.29-.02s.01,0,.02,0c.6,0,1.09.5,1.09,1.12,0,1.27,0,2.55-.04,3.81-.02.61-.51,1.09-1.1,1.09h0Z"/>
        <path class="cls-9" d="M4.33,13.24c1.12,0,2.04.95,2.05,2.12,0,1.24,0,2.5-.04,3.85-.03,1.14-.96,2.07-2.07,2.07h-.09s-1.28-.05-1.28-.05c-1.14-.05-2.04-1.02-2.01-2.16.04-1.3.05-2.5.04-3.67,0-1.15.89-2.07,2.04-2.11l1.29-.04h.07M4.26,20.45h0c.69,0,1.25-.55,1.27-1.26.04-1.34.05-2.59.04-3.82,0-.71-.57-1.29-1.29-1.29h0l-1.29.02c-.7.01-1.26.59-1.25,1.29,0,1.19,0,2.4-.04,3.7-.02.7.53,1.29,1.23,1.32l1.28.04h.04M4.33,13.07s-.05,0-.07,0l-1.29.04c-1.24.04-2.21,1.06-2.21,2.28,0,1.22,0,2.44-.04,3.67-.03,1.23.93,2.28,2.17,2.33l1.28.05s.06,0,.1,0c1.2,0,2.2-.98,2.24-2.24.04-1.28.05-2.56.04-3.85,0-1.27-1.01-2.29-2.22-2.29h0ZM4.26,20.27s-.03,0-.04,0l-1.28-.04c-.6-.02-1.08-.53-1.06-1.14.04-1.24.05-2.47.04-3.7,0-.6.48-1.11,1.09-1.12l1.29-.02s.01,0,.02,0c.6,0,1.09.5,1.09,1.12,0,1.27,0,2.55-.04,3.81-.02.61-.51,1.09-1.1,1.09h0Z"/>
        <path class="cls-9" d="M4.2,3.82c1.12,0,2.04.95,2.05,2.12,0,1.24,0,2.5-.04,3.85-.03,1.14-.96,2.07-2.07,2.07h-.09s-1.28-.05-1.28-.05c-1.14-.05-2.04-1.02-2.01-2.16.04-1.3.05-2.5.04-3.67,0-1.15.89-2.07,2.04-2.11l1.29-.04h.07M4.12,11.03h0c.69,0,1.25-.55,1.27-1.26.04-1.34.05-2.59.04-3.82,0-.71-.57-1.29-1.29-1.29h0l-1.29.02c-.7.01-1.26.59-1.25,1.29,0,1.19,0,2.4-.04,3.7-.02.7.53,1.29,1.23,1.32l1.28.04h.04M4.2,3.65s-.05,0-.07,0l-1.29.04c-1.24.04-2.21,1.06-2.21,2.28,0,1.22,0,2.44-.04,3.67-.03,1.23.93,2.28,2.17,2.33l1.28.05s.06,0,.1,0c1.2,0,2.2-.98,2.24-2.24.04-1.28.05-2.56.04-3.85,0-1.27-1.01-2.29-2.22-2.29h0ZM4.13,10.86s-.03,0-.04,0l-1.28-.04c-.6-.02-1.08-.53-1.06-1.14.04-1.24.05-2.47.04-3.7,0-.6.48-1.11,1.09-1.12l1.29-.02s.01,0,.02,0c.6,0,1.09.5,1.09,1.12,0,1.27,0,2.55-.04,3.81-.02.61-.51,1.09-1.1,1.09h0Z"/>
      </g>
      <g>
        <g>
          <path class="cls-3" d="M3.5,45.95c-.51,0-.93-.41-.93-.89,0-1.77-.02-3.34-.08-4.8,0-.23.08-.45.23-.61.17-.18.41-.29.67-.29h0c.53,0,.95.39.97.86.06,1.48.08,3.07.08,4.86,0,.48-.42.87-.93.87h-.02Z"/>
          <path class="cls-24" d="M3.42,39.63c.35,0,.65.26.66.59.06,1.62.08,3.24.08,4.85,0,.33-.29.59-.64.59,0,0,0,0-.01,0-.36,0-.65-.28-.65-.61,0-1.61-.02-3.21-.08-4.81-.01-.33.27-.6.63-.61,0,0,.01,0,.02,0M3.42,39.06s-.02,0-.03,0c-.33,0-.65.15-.87.38-.21.22-.32.51-.31.82.06,1.46.08,3.02.08,4.79,0,.64.54,1.17,1.21,1.18h0c.69,0,1.23-.52,1.23-1.16,0-1.79-.02-3.39-.08-4.87-.02-.62-.57-1.14-1.23-1.14h0Z"/>
        </g>
        <g>
          <path class="cls-4" d="M3.6,15.73c-.51,0-.93-.41-.93-.89,0-1.77-.02-3.34-.08-4.8,0-.23.08-.45.23-.61.17-.18.41-.29.67-.29h0c.53,0,.95.39.97.86.06,1.49.08,3.08.08,4.86,0,.48-.42.87-.93.87h-.02Z"/>
          <path class="cls-24" d="M3.52,9.41c.35,0,.65.26.66.59.06,1.62.08,3.24.08,4.85,0,.33-.29.59-.64.59,0,0,0,0-.01,0-.36,0-.65-.28-.65-.61,0-1.61-.02-3.21-.08-4.81-.01-.33.27-.6.63-.61,0,0,.01,0,.02,0M3.52,8.84s-.02,0-.03,0c-.33,0-.65.15-.87.38-.21.22-.32.51-.31.82.06,1.46.08,3.02.08,4.79,0,.64.54,1.17,1.21,1.18h0c.69,0,1.23-.52,1.23-1.16,0-1.79-.02-3.39-.08-4.87-.02-.62-.57-1.14-1.23-1.14h0Z"/>
        </g>
        <g>
          <path class="cls-2" d="M3.61,25.47c-.51,0-.93-.41-.93-.89,0-1.76-.02-3.33-.08-4.8,0-.23.08-.45.24-.61.17-.18.41-.29.67-.29h0c.53,0,.95.39.97.86.06,1.47.08,3.06.08,4.86,0,.48-.42.87-.93.87h-.02Z"/>
          <path class="cls-24" d="M3.53,19.16c.35,0,.65.26.66.59.06,1.62.08,3.24.08,4.85,0,.33-.29.59-.64.59,0,0,0,0-.01,0-.36,0-.65-.28-.65-.61,0-1.61-.02-3.21-.08-4.81-.01-.33.27-.6.63-.61,0,0,.01,0,.02,0M3.53,18.59s-.02,0-.03,0c-.33,0-.65.15-.87.38-.21.22-.32.51-.31.82.06,1.46.08,3.02.08,4.79,0,.64.54,1.17,1.21,1.18h0c.69,0,1.23-.52,1.23-1.16,0-1.79-.02-3.39-.08-4.87-.02-.62-.57-1.14-1.23-1.14h0Z"/>
        </g>
        <g>
          <path class="cls-1" d="M3.61,35.38c-.51,0-.93-.41-.93-.89,0-1.76-.02-3.33-.08-4.8,0-.23.08-.45.24-.61.17-.18.41-.29.67-.29h0c.53,0,.95.39.97.86.06,1.47.08,3.06.08,4.86,0,.48-.42.87-.93.87h-.02Z"/>
          <path class="cls-24" d="M3.53,29.07c.35,0,.65.26.66.59.06,1.62.08,3.24.08,4.85,0,.33-.29.59-.64.59,0,0,0,0-.01,0-.36,0-.65-.28-.65-.61,0-1.61-.02-3.21-.08-4.81-.01-.33.27-.6.63-.61,0,0,.01,0,.02,0M3.53,28.5s-.02,0-.03,0c-.33,0-.65.15-.87.38-.21.22-.32.51-.31.82.06,1.46.08,3.02.08,4.79,0,.64.54,1.17,1.21,1.18h0c.69,0,1.23-.52,1.23-1.16,0-1.79-.02-3.39-.08-4.87-.02-.62-.57-1.14-1.23-1.14h0Z"/>
        </g>
        <g>
          <path class="cls-5" d="M3.6,6.88c-.51,0-.93-.41-.93-.89,0-1.77-.02-3.34-.08-4.8,0-.23.08-.45.23-.61.17-.18.41-.29.67-.29h0c.53,0,.95.39.97.86.06,1.49.08,3.08.08,4.86,0,.48-.42.87-.93.87h-.02Z"/>
          <path class="cls-24" d="M3.52.57c.35,0,.65.26.66.59.06,1.62.08,3.24.08,4.85,0,.33-.29.59-.64.59,0,0,0,0-.01,0-.36,0-.65-.28-.65-.61,0-1.61-.02-3.21-.08-4.81-.01-.33.27-.6.63-.61,0,0,.01,0,.02,0M3.52,0s-.02,0-.03,0c-.33,0-.65.15-.87.38-.21.22-.32.51-.31.82.06,1.46.08,3.02.08,4.79,0,.64.54,1.17,1.21,1.18h0c.69,0,1.23-.52,1.23-1.16,0-1.79-.02-3.39-.08-4.87-.02-.62-.57-1.14-1.23-1.14h0Z"/>
        </g>
      </g>
      <g>
        <path class="cls-9" d="M3.42,39.63v.17c.26,0,.48.19.49.42.06,1.48.08,3.06.08,4.84,0,.23-.21.42-.48.42-.27,0-.48-.2-.48-.44,0-1.78-.02-3.35-.08-4.82,0-.1.04-.21.11-.28.09-.09.21-.15.35-.15v-.17M3.42,39.63s-.01,0-.02,0c-.36,0-.64.28-.63.61.06,1.6.08,3.21.08,4.81,0,.33.29.6.65.61,0,0,0,0,.01,0,.35,0,.64-.26.64-.59,0-1.62-.02-3.23-.08-4.85-.01-.33-.31-.59-.66-.59h0Z"/>
        <path class="cls-9" d="M3.52,9.41v.17c.26,0,.48.19.49.42.06,1.48.08,3.06.08,4.84,0,.23-.21.42-.48.42-.27,0-.48-.2-.48-.44,0-1.78-.02-3.35-.08-4.82,0-.1.04-.21.11-.28.09-.09.21-.15.35-.15v-.17M3.52,9.41s-.01,0-.02,0c-.36,0-.64.28-.63.61.06,1.6.08,3.21.08,4.81,0,.33.29.6.65.61,0,0,0,0,.01,0,.35,0,.64-.26.64-.59,0-1.62-.02-3.23-.08-4.85-.01-.33-.31-.59-.66-.59h0Z"/>
        <path class="cls-9" d="M3.53,19.16v.17c.26,0,.48.19.49.42.06,1.48.08,3.06.08,4.84,0,.23-.21.42-.48.42-.27,0-.48-.2-.48-.44,0-1.78-.02-3.35-.08-4.82,0-.1.04-.21.11-.28.09-.09.21-.15.35-.15v-.17M3.53,19.16s-.01,0-.02,0c-.36,0-.64.28-.63.61.06,1.6.08,3.21.08,4.81,0,.33.29.6.65.61,0,0,0,0,.01,0,.35,0,.64-.26.64-.59,0-1.62-.02-3.23-.08-4.85-.01-.33-.31-.59-.66-.59h0Z"/>
        <path class="cls-9" d="M3.53,29.07v.17c.26,0,.48.19.49.42.06,1.48.08,3.06.08,4.84,0,.23-.21.42-.48.42-.27,0-.48-.2-.48-.44,0-1.78-.02-3.35-.08-4.82,0-.1.04-.21.11-.28.09-.09.21-.15.35-.15v-.17M3.53,29.07s-.01,0-.02,0c-.36,0-.64.28-.63.61.06,1.6.08,3.21.08,4.81,0,.33.29.6.65.61,0,0,0,0,.01,0,.35,0,.64-.26.64-.59,0-1.62-.02-3.23-.08-4.85-.01-.33-.31-.59-.66-.59h0Z"/>
        <path class="cls-9" d="M3.52.57v.17c.26,0,.48.19.49.42.06,1.48.08,3.06.08,4.84,0,.23-.21.42-.48.42-.27,0-.48-.2-.48-.44,0-1.78-.02-3.35-.08-4.82,0-.1.04-.21.11-.28.09-.09.21-.15.35-.15v-.17M3.52.57s-.01,0-.02,0c-.36,0-.64.28-.63.61.06,1.6.08,3.21.08,4.81,0,.33.29.6.65.61,0,0,0,0,.01,0,.35,0,.64-.26.64-.59,0-1.62-.02-3.23-.08-4.85-.01-.33-.31-.59-.66-.59h0Z"/>
      </g>
    </g>
    <g>
      <g>
        <g>
          <path class="cls-11" d="M39.17,38.25c-.39,0-.78-.09-1.11-.25-.6-.29-1.02-.8-1.17-1.44l-.27-1.15c-.14-.59-.05-1.21.25-1.76.3-.54.75-.93,1.29-1.11.9-.31,1.84-.7,2.97-1.25.33-.16.7-.24,1.07-.24.89,0,1.71.47,2.12,1.23l.56,1.04c.29.53.35,1.15.16,1.75-.21.66-.68,1.19-1.33,1.51-1.34.65-2.5,1.14-3.63,1.52-.3.1-.61.15-.92.15h0ZM42.19,32.67c-.12,0-.23.03-.34.08-1.19.58-2.19,1-3.15,1.33-.38.13-.58.53-.48.92l.33,1.13c.08.29.37.49.71.49.1,0,.2-.02.3-.05,1.07-.37,2.17-.83,3.45-1.45.21-.1.36-.28.43-.48.06-.18.04-.36-.04-.52l-.54-1.05c-.12-.24-.38-.39-.66-.39Z"/>
          <path class="cls-24" d="M42.21,31.33c.75,0,1.49.38,1.87,1.08l.56,1.04c.55,1,.11,2.3-1.05,2.87-1.15.56-2.34,1.08-3.6,1.51-.27.09-.55.14-.82.14-.35,0-.69-.08-.98-.22-.52-.25-.89-.69-1.01-1.25l-.27-1.15c-.13-.55-.02-1.11.22-1.56.25-.45.63-.81,1.13-.98,1-.34,2-.78,3-1.26.3-.15.62-.22.94-.22M39.26,36.89c.13,0,.26-.02.39-.07,1.21-.41,2.36-.92,3.48-1.46.55-.27.78-.9.52-1.39l-.54-1.05c-.18-.35-.54-.54-.91-.54-.16,0-.32.03-.47.11-1.03.5-2.07.95-3.12,1.31-.51.18-.81.73-.66,1.27l.33,1.13c.12.42.52.69.98.69M42.21,30.76c-.41,0-.83.09-1.19.27-1.1.53-2.06.94-2.94,1.24-.62.21-1.12.64-1.45,1.25-.33.61-.43,1.31-.28,1.96l.27,1.15c.17.72.64,1.3,1.32,1.63.37.18.79.28,1.23.28.34,0,.68-.06,1.01-.17,1.14-.39,2.3-.88,3.66-1.54.72-.35,1.25-.95,1.48-1.68.21-.67.15-1.37-.18-1.97l-.56-1.03c-.47-.85-1.38-1.38-2.37-1.38h0ZM39.26,36.33c-.21,0-.39-.11-.43-.27l-.33-1.14c-.07-.24.06-.49.3-.57.97-.33,1.98-.76,3.18-1.34.07-.03.14-.05.22-.05.18,0,.33.09.41.24l.54,1.05c.06.12.05.23.02.3-.04.13-.15.25-.29.32-1.27.62-2.35,1.07-3.41,1.43-.07.02-.14.04-.2.04h0Z"/>
        </g>
        <g>
          <path class="cls-12" d="M47.79,34.09c-.71,0-1.36-.3-1.78-.83l-.74-.92c-.82-1.02-.65-2.49.38-3.36.91-.76,1.81-1.53,2.7-2.29.46-.39,1.04-.61,1.63-.61.67,0,1.31.28,1.75.77l.78.88c.4.45.6,1.04.56,1.66-.04.66-.36,1.3-.88,1.75-.92.79-1.84,1.57-2.76,2.34-.46.39-1.04.6-1.64.6h0ZM49.93,27.72c-.19,0-.38.07-.52.2-.9.77-1.8,1.54-2.71,2.31-.33.27-.38.75-.13,1.05l.75.91c.13.16.33.25.54.25.19,0,.37-.07.52-.19.92-.77,1.83-1.55,2.74-2.33.16-.14.27-.35.28-.56.01-.19-.05-.37-.17-.5l-.78-.89c-.13-.15-.33-.24-.54-.24Z"/>
          <path class="cls-24" d="M49.97,26.36c.57,0,1.14.23,1.54.68l.78.88c.76.85.63,2.2-.29,3-.92.79-1.84,1.57-2.76,2.34-.43.36-.95.54-1.45.54-.6,0-1.17-.24-1.56-.72l-.74-.92c-.71-.89-.57-2.2.34-2.97.91-.76,1.81-1.53,2.7-2.29.42-.36.94-.54,1.45-.54M47.86,32.72c.25,0,.5-.09.71-.26.92-.77,1.83-1.55,2.75-2.33.45-.39.51-1.05.15-1.46l-.78-.89c-.19-.22-.47-.34-.75-.34-.25,0-.5.09-.71.27-.9.77-1.8,1.54-2.71,2.3-.45.37-.52,1.03-.16,1.45l.75.91c.19.23.47.35.76.35M49.97,25.79c-.66,0-1.31.24-1.82.68-.89.77-1.79,1.53-2.69,2.29-1.15.97-1.33,2.62-.42,3.76l.75.92c.48.59,1.21.93,2,.93.66,0,1.31-.24,1.82-.67.92-.77,1.84-1.56,2.76-2.35.57-.5.93-1.2.98-1.94.05-.7-.18-1.36-.63-1.87l-.78-.88c-.49-.55-1.21-.87-1.96-.87h0ZM47.86,32.15c-.08,0-.22-.02-.32-.14l-.75-.91c-.16-.19-.11-.48.09-.65.91-.76,1.82-1.53,2.72-2.31.1-.08.22-.13.34-.13.07,0,.22.02.32.14l.78.89c.09.1.1.22.1.3,0,.14-.08.27-.19.36-.91.78-1.82,1.56-2.74,2.33-.1.08-.22.13-.34.13h0Z"/>
        </g>
        <g>
          <path class="cls-13" d="M54.97,27.31c-.66,0-1.29-.28-1.71-.76l-.78-.88c-.85-.96-.75-2.48.23-3.37.86-.79,1.7-1.59,2.53-2.4.47-.46,1.09-.71,1.74-.71.62,0,1.2.23,1.63.65l.85.82c.43.42.67.99.68,1.61,0,.67-.28,1.34-.78,1.82-.88.86-1.77,1.71-2.67,2.53-.48.44-1.08.68-1.71.68h0ZM56.92,20.84c-.21,0-.4.08-.55.23-.84.82-1.7,1.63-2.57,2.43-.31.29-.35.76-.08,1.06l.79.88c.13.14.31.22.52.22s.4-.08.55-.22c.89-.81,1.77-1.64,2.63-2.49.16-.16.25-.37.25-.58,0-.19-.07-.36-.2-.49l-.84-.83c-.13-.13-.31-.2-.5-.2Z"/>
          <path class="cls-24" d="M56.97,19.48c.52,0,1.04.19,1.44.57l.85.82c.82.79.79,2.16-.1,3.03-.87.86-1.76,1.7-2.66,2.52-.44.41-.99.6-1.52.6-.56,0-1.11-.22-1.5-.66l-.78-.88c-.76-.85-.65-2.18.21-2.98.86-.79,1.71-1.59,2.53-2.4.43-.42.99-.63,1.54-.63M55.03,25.94c.26,0,.53-.1.74-.29.89-.82,1.77-1.65,2.64-2.5.43-.42.45-1.08.05-1.47l-.84-.83c-.19-.19-.45-.29-.7-.29s-.54.1-.75.31c-.84.82-1.69,1.63-2.56,2.43-.43.39-.47,1.04-.1,1.46l.79.88c.19.21.46.32.73.32M56.97,18.91c-.72,0-1.41.28-1.93.79-.79.78-1.62,1.56-2.52,2.39-1.09,1.01-1.2,2.7-.25,3.77l.78.88c.48.54,1.18.85,1.92.85.7,0,1.38-.27,1.91-.76.95-.87,1.83-1.7,2.68-2.54.55-.54.86-1.27.86-2.02,0-.7-.27-1.35-.77-1.82l-.84-.82c-.49-.47-1.14-.73-1.83-.73h0ZM55.03,25.37c-.07,0-.2-.02-.31-.13l-.79-.88c-.16-.18-.13-.47.06-.66.92-.84,1.76-1.64,2.57-2.44.1-.09.22-.15.35-.15.12,0,.23.04.3.12l.84.83c.1.1.12.21.12.29,0,.14-.06.27-.16.37-.83.81-1.69,1.63-2.62,2.49-.1.09-.23.15-.36.15h0Z"/>
        </g>
        <g>
          <path class="cls-14" d="M23.84,38.25c-.31,0-.62-.05-.92-.15-1.13-.39-2.28-.87-3.63-1.52-.65-.32-1.13-.85-1.34-1.51-.19-.6-.13-1.22.16-1.75l.56-1.04c.42-.76,1.23-1.23,2.12-1.23.37,0,.74.08,1.07.24,1.13.55,2.07.94,2.97,1.25.55.19,1,.57,1.29,1.11.3.55.39,1.18.25,1.76l-.27,1.15c-.15.64-.56,1.15-1.17,1.44-.33.16-.71.25-1.11.25ZM20.82,32.67c-.28,0-.54.15-.66.39l-.54,1.05c-.08.16-.1.34-.04.52.07.21.22.38.43.48,1.28.62,2.37,1.08,3.44,1.45.1.03.2.05.3.05.34,0,.63-.19.71-.48l.33-1.13c.11-.38-.1-.79-.48-.92-.96-.33-1.96-.75-3.15-1.33-.11-.05-.22-.08-.34-.08Z"/>
          <path class="cls-24" d="M20.81,31.33c.32,0,.65.07.94.22,1,.48,2,.92,3,1.26.5.17.89.53,1.13.98.24.45.35,1.01.22,1.56l-.27,1.15c-.13.56-.5,1-1.01,1.25-.29.14-.63.22-.98.22-.27,0-.55-.04-.82-.14-1.26-.43-2.45-.96-3.6-1.51-1.16-.57-1.6-1.87-1.05-2.87l.56-1.04c.38-.7,1.12-1.08,1.87-1.08M23.75,36.89c.46,0,.86-.27.98-.69l.33-1.13c.15-.54-.15-1.09-.66-1.27-1.05-.36-2.09-.81-3.12-1.31-.15-.07-.31-.11-.47-.11-.37,0-.73.2-.91.54l-.54,1.05c-.26.49-.03,1.12.52,1.39,1.12.54,2.27,1.05,3.48,1.46.13.04.26.07.39.07M20.81,30.76c-1,0-1.9.53-2.37,1.38l-.56,1.04c-.33.6-.39,1.3-.18,1.97.23.73.76,1.33,1.48,1.68,1.36.66,2.52,1.15,3.66,1.54.33.11.67.17,1.01.17.44,0,.86-.1,1.23-.28.68-.33,1.15-.91,1.32-1.63l.27-1.15c.15-.66.05-1.35-.28-1.96-.33-.61-.83-1.04-1.45-1.25-.88-.3-1.84-.7-2.93-1.24-.37-.18-.78-.27-1.19-.27h0ZM23.75,36.33c-.07,0-.14-.01-.2-.03-1.06-.36-2.14-.82-3.41-1.44-.14-.07-.24-.18-.28-.31-.02-.07-.04-.19.02-.3l.54-1.05c.08-.14.23-.24.41-.24.08,0,.15.02.21.05,1.2.58,2.21,1.01,3.18,1.34.23.08.36.33.29.57l-.33,1.13c-.05.17-.23.28-.43.28h0Z"/>
        </g>
        <g>
          <path class="cls-16" d="M15.22,34.09c-.59,0-1.18-.21-1.64-.6-.92-.77-1.84-1.55-2.76-2.34-.52-.45-.84-1.08-.88-1.75-.04-.62.16-1.21.56-1.66l.78-.88c.44-.49,1.08-.78,1.75-.78.6,0,1.18.22,1.63.61.89.77,1.79,1.53,2.7,2.29,1.03.87,1.2,2.34.38,3.36l-.74.92c-.42.53-1.07.83-1.78.83h0ZM13.09,27.72c-.21,0-.41.09-.54.24l-.78.89c-.12.14-.18.32-.17.5.01.21.12.41.28.56.91.78,1.82,1.56,2.74,2.33.15.12.33.19.52.19.21,0,.41-.09.54-.25l.75-.91c.25-.31.2-.78-.13-1.05-.91-.76-1.82-1.53-2.71-2.31-.15-.13-.33-.2-.52-.2Z"/>
          <path class="cls-24" d="M13.04,26.36c.51,0,1.03.18,1.45.54.89.77,1.79,1.53,2.7,2.29.91.77,1.05,2.08.34,2.97l-.74.92c-.39.48-.96.72-1.56.72-.51,0-1.03-.18-1.45-.54-.92-.77-1.84-1.55-2.76-2.34-.92-.8-1.05-2.15-.29-3l.78-.88c.4-.45.96-.68,1.54-.68M15.16,32.72c.29,0,.57-.12.76-.35l.75-.91c.35-.43.28-1.08-.16-1.45-.91-.76-1.81-1.53-2.71-2.3-.21-.18-.46-.27-.71-.27-.28,0-.56.11-.75.34l-.78.89c-.37.42-.3,1.08.15,1.46.91.78,1.83,1.56,2.75,2.33.21.17.46.26.71.26M13.04,25.79c-.76,0-1.47.32-1.96.87l-.78.88c-.45.51-.68,1.17-.63,1.87.05.74.41,1.45.98,1.94.92.79,1.84,1.57,2.76,2.35.51.43,1.16.67,1.82.67.79,0,1.52-.34,2-.94l.74-.91c.92-1.14.73-2.79-.42-3.76-.91-.76-1.8-1.52-2.7-2.29-.51-.44-1.15-.68-1.82-.68h0ZM15.16,32.15c-.12,0-.24-.05-.34-.13-.92-.77-1.83-1.55-2.74-2.33-.11-.09-.17-.22-.18-.36,0-.08,0-.2.1-.3l.78-.89c.11-.12.25-.14.32-.14.12,0,.24.05.33.13.9.78,1.81,1.55,2.72,2.31.21.17.25.47.09.65l-.75.91c-.1.13-.25.14-.32.14h0Z"/>
        </g>
        <g>
          <path class="cls-20" d="M8.04,27.31c-.63,0-1.24-.24-1.71-.68-.9-.82-1.79-1.67-2.67-2.53-.5-.48-.78-1.15-.78-1.82,0-.62.24-1.2.68-1.62l.85-.82c.44-.42,1.02-.65,1.63-.65.65,0,1.27.25,1.74.71.83.81,1.67,1.61,2.53,2.4.98.9,1.08,2.41.23,3.37l-.79.88c-.42.48-1.05.76-1.71.76ZM6.09,20.84c-.19,0-.37.07-.5.2l-.84.83c-.13.13-.2.3-.2.49,0,.21.09.42.25.58.86.85,1.74,1.68,2.63,2.49.15.14.35.22.55.22s.39-.08.52-.22l.79-.88c.27-.3.23-.77-.08-1.06-.87-.8-1.73-1.61-2.57-2.43-.15-.15-.35-.23-.55-.23Z"/>
          <path class="cls-24" d="M6.04,19.48c.55,0,1.11.21,1.54.63.83.81,1.67,1.61,2.53,2.4.86.79.97,2.12.21,2.98l-.78.88c-.39.44-.93.66-1.5.66-.53,0-1.08-.2-1.52-.6-.9-.82-1.79-1.66-2.66-2.52-.89-.87-.92-2.24-.1-3.03l.85-.82c.4-.38.92-.57,1.44-.57M7.98,25.94c.27,0,.54-.11.73-.32l.79-.88c.37-.41.33-1.07-.1-1.46-.87-.8-1.72-1.6-2.56-2.43-.21-.21-.48-.31-.75-.31s-.51.09-.7.29l-.84.83c-.4.39-.37,1.06.05,1.47.87.85,1.75,1.68,2.64,2.5.21.2.48.29.74.29M6.04,18.91c-.69,0-1.34.26-1.83.73l-.85.82c-.49.47-.76,1.12-.76,1.82,0,.75.31,1.49.86,2.03.85.83,1.72,1.66,2.67,2.54.53.49,1.21.75,1.91.75.74,0,1.45-.31,1.92-.85l.78-.88c.95-1.08.84-2.77-.25-3.77-.9-.83-1.73-1.61-2.52-2.39-.53-.51-1.21-.79-1.94-.79h0ZM7.98,25.37c-.13,0-.26-.05-.36-.14-.94-.86-1.8-1.67-2.62-2.49-.11-.1-.17-.24-.17-.38,0-.08.02-.19.11-.29l.84-.83c.08-.08.19-.12.3-.12.13,0,.26.05.36.15.81.8,1.65,1.59,2.57,2.44.2.18.22.48.06.66l-.79.87c-.1.11-.24.13-.31.13h0Z"/>
        </g>
        <g>
          <path class="cls-21" d="M32.01,39.43c-.92,0-1.83-.07-2.7-.21-.75-.12-1.42-.51-1.82-1.08-.4-.57-.5-1.22-.3-1.85l.36-1.12c.18-.57.57-1.06,1.08-1.39.4-.26.83-.4,1.26-.4.11,0,.21,0,.32.02.57.09,1.18.14,1.81.14.36,0,.72-.01,1.08-.04h.16c.24,0,.46.03.68.1.28.1.52.22.74.39.36.28.81.76.97,1.48l.26,1.15c.14.65-.02,1.31-.45,1.81-.22.27-.5.49-.81.63-.34.17-.7.27-1.07.3-.51.04-1.03.06-1.55.06ZM29.85,35c-.17,0-.32.08-.41.14-.16.11-.27.28-.32.46l-.27,1.15c-.04.18,0,.37.12.54.12.17.33.28.58.33.78.12,1.61.19,2.44.19.48,0,.95-.02,1.42-.06.23-.02.45-.12.59-.28.13-.15.19-.33.16-.52l-.18-1.17c-.03-.19-.13-.37-.29-.49-.13-.11-.29-.16-.46-.16-.45.03-.85.05-1.25.05-.71,0-1.4-.05-2.06-.16h-.11Z"/>
          <path class="cls-24" d="M29.89,33.67c.09,0,.18,0,.27.02.61.1,1.23.14,1.85.14.37,0,.73-.02,1.1-.04.04,0,.09,0,.13,0,.2,0,.4.03.59.09.23.08.45.19.65.34.4.31.74.76.86,1.32l.26,1.15c.12.55,0,1.12-.39,1.57-.19.22-.43.42-.71.56-.29.14-.61.24-.96.27-.51.04-1.02.06-1.53.06-.88,0-1.77-.06-2.65-.2-.7-.11-1.29-.48-1.63-.96-.34-.49-.44-1.06-.26-1.6l.36-1.12c.18-.54.55-.97.96-1.24.34-.22.72-.35,1.1-.35M32.01,38.09c.48,0,.97-.02,1.45-.06.32-.02.6-.17.79-.38.18-.21.27-.47.23-.75l-.18-1.17c-.04-.28-.19-.51-.39-.67-.18-.14-.41-.22-.64-.22-.02,0-.04,0-.07,0-.39.03-.79.05-1.18.05-.68,0-1.35-.05-2.01-.15-.05,0-.1-.01-.15-.01-.2,0-.4.07-.57.19-.21.14-.37.36-.44.63l-.27,1.15c-.06.27,0,.55.17.77.17.22.44.38.76.44.83.13,1.66.19,2.5.19M29.89,33.1c-.49,0-.96.15-1.41.45-.56.36-.99.91-1.19,1.54l-.36,1.12c-.23.71-.11,1.46.34,2.1.45.63,1.18,1.07,2.01,1.2.88.14,1.81.21,2.74.21.51,0,1.05-.02,1.58-.06.4-.03.8-.14,1.17-.33.33-.16.64-.4.89-.71.48-.57.67-1.32.51-2.05l-.26-1.15c-.14-.63-.51-1.2-1.07-1.64-.24-.19-.51-.33-.82-.43-.25-.08-.51-.12-.78-.12-.05,0-.11,0-.17,0-.37.03-.72.04-1.07.04-.61,0-1.21-.04-1.76-.13-.12-.02-.24-.03-.36-.03h0ZM32.01,37.52c-.82,0-1.63-.06-2.41-.18-.17-.03-.31-.11-.39-.22-.05-.07-.1-.17-.07-.3l.27-1.15c.03-.12.1-.22.2-.29.08-.06.17-.09.25-.09,0,0,.06,0,.06,0,.67.11,1.38.16,2.1.16.4,0,.81-.02,1.23-.05h0c.13,0,.23.04.31.1.1.08.16.19.18.31l.18,1.17c.02.13-.04.23-.09.29-.1.11-.24.18-.4.19-.48.04-.95.06-1.41.06h0Z"/>
        </g>
      </g>
      <g>
        <path class="cls-9" d="M42.21,31.5c.73,0,1.39.38,1.72.99l.56,1.04c.23.42.28.92.12,1.39-.17.54-.56.98-1.1,1.24-1.33.64-2.46,1.12-3.58,1.5-.25.09-.51.13-.77.13-.32,0-.64-.07-.91-.2-.48-.23-.81-.64-.92-1.14l-.27-1.15c-.11-.48-.04-.99.21-1.44.24-.44.6-.75,1.04-.9.9-.31,1.89-.73,3.02-1.27.27-.13.57-.2.87-.2M39.26,37.07c.15,0,.3-.03.44-.08,1.09-.37,2.2-.84,3.5-1.47.32-.15.56-.43.66-.75.1-.3.07-.61-.07-.87l-.54-1.05c-.2-.39-.61-.63-1.07-.63-.19,0-.37.04-.54.12-1.17.57-2.15.98-3.1,1.31-.6.21-.94.86-.77,1.48l.33,1.13c.14.49.6.81,1.14.81M42.21,31.33c-.32,0-.65.07-.94.22-1,.48-2,.92-3,1.26-.5.17-.89.53-1.13.98-.24.45-.35,1.01-.22,1.56l.27,1.15c.13.56.5,1,1.01,1.25.29.14.63.22.98.22.27,0,.55-.04.82-.14,1.26-.43,2.45-.96,3.6-1.51,1.16-.57,1.6-1.87,1.05-2.87l-.56-1.04c-.38-.7-1.12-1.08-1.87-1.08h0ZM39.26,36.89c-.46,0-.86-.27-.98-.69l-.33-1.13c-.15-.54.15-1.09.66-1.27,1.05-.36,2.09-.81,3.12-1.31.15-.07.31-.11.47-.11.37,0,.73.2.91.54l.54,1.05c.26.49.03,1.12-.52,1.39-1.12.54-2.27,1.05-3.48,1.46-.13.04-.26.07-.39.07h0Z"/>
        <path class="cls-9" d="M49.97,26.53c.54,0,1.06.23,1.41.62l.78.88c.32.36.48.83.45,1.33-.04.54-.3,1.06-.72,1.43-.92.79-1.83,1.57-2.75,2.34-.38.32-.86.5-1.34.5-.57,0-1.09-.24-1.43-.66l-.74-.92c-.66-.82-.52-2.02.32-2.73.91-.76,1.81-1.53,2.7-2.3.37-.32.85-.5,1.33-.5M47.86,32.89c.3,0,.59-.11.82-.3.92-.77,1.83-1.55,2.75-2.33.26-.22.42-.54.44-.87.02-.31-.08-.61-.28-.84l-.78-.89c-.22-.25-.54-.39-.88-.39-.3,0-.59.11-.82.31-.9.77-1.8,1.54-2.71,2.3-.52.43-.6,1.19-.19,1.69l.75.91c.22.26.54.41.89.41M49.97,26.36c-.51,0-1.03.18-1.45.54-.89.77-1.79,1.53-2.7,2.29-.91.77-1.05,2.08-.34,2.97l.74.92c.39.48.96.72,1.56.72.51,0,1.03-.18,1.45-.54.92-.77,1.84-1.55,2.76-2.34.92-.8,1.05-2.15.29-3l-.78-.88c-.4-.45-.96-.68-1.54-.68h0ZM47.86,32.72c-.29,0-.57-.12-.76-.35l-.75-.91c-.35-.43-.28-1.08.16-1.45.91-.76,1.81-1.53,2.71-2.3.21-.18.46-.27.71-.27.28,0,.56.11.75.34l.78.89c.37.42.3,1.08-.15,1.46-.91.78-1.83,1.56-2.75,2.33-.21.17-.46.26-.71.26h0Z"/>
        <path class="cls-9" d="M56.97,19.65c.5,0,.97.19,1.32.52l.85.82c.35.33.54.79.54,1.29,0,.55-.23,1.09-.64,1.49-.84.83-1.71,1.65-2.66,2.52-.39.36-.89.56-1.41.56s-1.03-.21-1.37-.6l-.78-.88c-.69-.78-.6-2,.2-2.74.91-.83,1.74-1.62,2.54-2.41.38-.38.89-.58,1.42-.58M55.03,26.11c.32,0,.62-.12.86-.34.94-.87,1.81-1.68,2.64-2.5.25-.24.39-.57.39-.9,0-.31-.12-.6-.33-.82l-.84-.83c-.22-.22-.51-.34-.82-.34s-.64.13-.87.36c-.8.79-1.64,1.58-2.56,2.42-.49.45-.54,1.22-.11,1.7l.79.88c.22.24.52.38.86.38M56.97,19.48c-.55,0-1.11.21-1.54.63-.83.81-1.67,1.61-2.53,2.4-.86.79-.97,2.12-.21,2.98l.78.88c.39.44.93.66,1.5.66.53,0,1.08-.2,1.52-.6.9-.82,1.79-1.66,2.66-2.52.89-.87.92-2.24.1-3.03l-.85-.82c-.4-.38-.92-.57-1.44-.57h0ZM55.03,25.94c-.27,0-.54-.11-.73-.32l-.79-.88c-.37-.41-.33-1.07.1-1.46.87-.8,1.72-1.6,2.56-2.43.21-.21.48-.31.75-.31s.51.09.7.29l.84.83c.4.39.37,1.06-.05,1.47-.87.85-1.75,1.68-2.64,2.5-.21.2-.48.29-.74.29h0Z"/>
        <path class="cls-9" d="M20.81,31.5c.3,0,.6.07.87.2,1.13.55,2.11.96,3.02,1.27.44.15.8.46,1.04.9.24.45.32.96.21,1.44l-.27,1.15c-.12.5-.44.9-.92,1.14-.27.13-.58.2-.91.2-.26,0-.52-.04-.77-.13-1.11-.38-2.25-.86-3.58-1.5-.54-.26-.93-.7-1.1-1.24-.15-.48-.11-.97.12-1.4l.56-1.04c.34-.61,1-1,1.72-1M23.75,37.07c.55,0,1.01-.33,1.14-.81l.33-1.13c.17-.62-.16-1.27-.77-1.48-.94-.32-1.93-.74-3.1-1.3-.17-.08-.35-.13-.54-.13-.45,0-.86.24-1.07.64l-.54,1.05c-.14.27-.16.58-.07.87.11.32.35.59.66.75,1.3.63,2.41,1.1,3.5,1.47.15.05.29.08.44.08M20.81,31.33c-.75,0-1.49.38-1.87,1.08l-.56,1.04c-.55,1-.11,2.3,1.05,2.87,1.15.56,2.34,1.08,3.6,1.51.27.09.55.14.82.14.35,0,.69-.08.98-.22.52-.25.89-.69,1.01-1.25l.27-1.15c.13-.55.02-1.11-.22-1.56-.25-.45-.63-.81-1.13-.98-1-.34-2-.78-3-1.26-.3-.15-.62-.22-.94-.22h0ZM23.75,36.89c-.13,0-.26-.02-.39-.07-1.21-.41-2.36-.92-3.48-1.46-.55-.27-.78-.9-.52-1.39l.54-1.05c.18-.35.54-.54.91-.54.16,0,.32.03.47.11,1.03.5,2.07.95,3.12,1.31.51.18.81.73.66,1.27l-.33,1.13c-.12.42-.52.69-.98.69h0Z"/>
        <path class="cls-9" d="M13.04,26.53c.49,0,.96.18,1.34.5.89.77,1.79,1.53,2.7,2.3.84.71.98,1.91.32,2.73l-.74.92c-.34.42-.86.66-1.42.66-.49,0-.96-.18-1.34-.5-.92-.77-1.84-1.55-2.75-2.34-.42-.37-.69-.89-.72-1.43-.03-.5.13-.97.45-1.33l.78-.88c.35-.4.87-.62,1.41-.62M15.16,32.89c.35,0,.68-.15.89-.41l.75-.91c.41-.5.33-1.26-.19-1.69-.91-.76-1.81-1.53-2.71-2.3-.23-.2-.52-.31-.82-.31-.34,0-.66.14-.88.39l-.78.89c-.2.23-.3.53-.28.84.02.33.18.65.44.87.91.78,1.83,1.56,2.75,2.33.23.19.52.3.82.3M13.04,26.36c-.57,0-1.14.23-1.54.68l-.78.88c-.76.85-.63,2.2.29,3,.92.79,1.84,1.57,2.76,2.34.43.36.95.54,1.45.54.6,0,1.17-.24,1.56-.72l.74-.92c.71-.89.57-2.2-.34-2.97-.91-.76-1.81-1.53-2.7-2.29-.42-.36-.94-.54-1.45-.54h0ZM15.16,32.72c-.25,0-.5-.09-.71-.26-.92-.77-1.83-1.55-2.75-2.33-.45-.39-.51-1.05-.15-1.46l.78-.89c.19-.22.47-.34.75-.34.25,0,.5.09.71.27.9.77,1.8,1.54,2.71,2.3.45.37.52,1.03.16,1.45l-.75.91c-.19.23-.47.35-.76.35h0Z"/>
        <path class="cls-9" d="M6.04,19.65c.53,0,1.03.21,1.42.58.8.79,1.63,1.57,2.54,2.41.8.73.88,1.96.2,2.74l-.78.88c-.34.39-.83.6-1.37.6s-1.01-.2-1.41-.56c-.95-.87-1.82-1.69-2.66-2.52-.41-.4-.64-.94-.64-1.49,0-.5.19-.96.54-1.29l.85-.82c.35-.34.82-.53,1.32-.53M7.98,26.11c.33,0,.64-.13.86-.37l.79-.88c.43-.48.38-1.24-.11-1.7-.91-.84-1.75-1.63-2.56-2.42-.24-.23-.55-.36-.87-.36s-.61.12-.82.34l-.84.83c-.22.21-.33.5-.33.82,0,.33.14.66.39.9.83.82,1.7,1.64,2.64,2.5.24.22.54.34.86.34M6.04,19.48c-.52,0-1.04.19-1.44.57l-.85.82c-.82.79-.79,2.16.1,3.03.87.86,1.76,1.7,2.66,2.52.44.41.99.6,1.52.6.56,0,1.11-.22,1.5-.66l.78-.88c.76-.85.65-2.18-.21-2.98-.86-.79-1.71-1.59-2.53-2.4-.43-.42-.99-.63-1.54-.63h0ZM7.98,25.94c-.26,0-.53-.1-.74-.29-.89-.82-1.77-1.65-2.64-2.5-.43-.42-.45-1.08-.05-1.47l.84-.83c.19-.19.45-.29.7-.29s.54.1.75.31c.84.82,1.69,1.63,2.56,2.43.43.39.47,1.04.1,1.46l-.79.88c-.19.21-.46.32-.73.32h0Z"/>
        <path class="cls-9" d="M29.89,33.84c.08,0,.16,0,.25.02.6.09,1.23.14,1.88.14.36,0,.74-.01,1.11-.04.04,0,.08,0,.12,0,.19,0,.37.03.53.08.23.08.43.18.6.32.29.23.67.63.8,1.22l.26,1.15c.11.51-.01,1.03-.35,1.42-.18.22-.41.4-.66.52-.29.15-.59.23-.9.25-.51.04-1.02.06-1.52.06-.9,0-1.78-.07-2.63-.2-.62-.1-1.19-.43-1.52-.89-.31-.45-.4-.96-.24-1.45l.36-1.12c.15-.46.47-.88.89-1.15.33-.21.67-.32,1.01-.32M32.01,38.26c.48,0,.97-.02,1.46-.06.35-.02.68-.18.9-.44.22-.25.32-.57.27-.89l-.18-1.17c-.05-.31-.21-.58-.45-.78-.22-.17-.48-.26-.75-.26-.03,0-.05,0-.08,0-.4.03-.79.05-1.17.05-.69,0-1.36-.05-1.98-.15-.06-.01-.12-.02-.18-.02-.23,0-.45.07-.66.21-.26.17-.44.43-.51.73l-.27,1.15c-.07.32,0,.64.2.91.19.26.5.44.87.5.81.13,1.66.19,2.52.19M29.89,33.67c-.39,0-.76.13-1.1.35-.41.27-.79.7-.96,1.24l-.36,1.12c-.18.54-.08,1.11.26,1.6.34.48.93.85,1.63.96.88.14,1.77.2,2.65.2.51,0,1.02-.02,1.53-.06.35-.02.68-.12.96-.27.29-.14.53-.34.71-.56.38-.44.51-1.01.39-1.57l-.26-1.15c-.12-.56-.46-1-.86-1.32-.2-.15-.42-.26-.65-.34-.19-.06-.39-.09-.59-.09-.04,0-.09,0-.13,0-.37.03-.73.04-1.1.04-.62,0-1.25-.04-1.85-.14-.09-.01-.18-.02-.27-.02h0ZM32.01,38.09c-.83,0-1.67-.06-2.5-.19-.32-.06-.59-.21-.76-.44-.17-.23-.24-.5-.17-.77l.27-1.15c.06-.27.23-.49.44-.63.17-.11.36-.19.57-.19.05,0,.1,0,.15.01.66.1,1.34.15,2.01.15.4,0,.79-.02,1.18-.05.02,0,.04,0,.07,0,.24,0,.46.08.64.22.2.16.35.39.39.67l.18,1.17c.04.28-.05.54-.23.75-.18.21-.46.36-.79.38-.48.04-.96.06-1.45.06h0Z"/>
      </g>
      <g>
        <g>
          <path class="cls-22" d="M33.81,37.29c-.47,0-.89-.34-.98-.8-.05-.25,0-.49.15-.68.14-.19.36-.32.6-.34,1.65-.18,3.31-.51,5-.86.06-.01.12-.02.19-.02.43,0,.83.29.95.71.07.25.04.5-.08.71-.12.21-.33.35-.57.4-1.8.37-3.44.69-5.16.88-.01,0-.1,0-.11,0Z"/>
          <path class="cls-24" d="M38.78,34.87c.3,0,.59.21.68.51.1.34-.09.68-.44.75-1.68.35-3.38.68-5.13.88-.03,0-.05,0-.08,0-.33,0-.64-.24-.7-.57-.06-.35.16-.65.51-.69,1.68-.19,3.35-.52,5.03-.86.04,0,.09-.01.13-.01M38.78,34.3c-.08,0-.17,0-.25.02-1.68.35-3.33.67-4.98.85-.33.04-.61.2-.8.46-.19.26-.26.58-.2.91.11.59.65,1.03,1.26,1.03.05,0,.09,0,.14,0,1.74-.19,3.44-.53,5.18-.89.32-.07.6-.26.76-.54.17-.28.21-.62.11-.94-.16-.54-.66-.91-1.22-.91h0Z"/>
        </g>
        <g>
          <path class="cls-23" d="M42.5,34.88c-.37,0-.7-.2-.86-.53-.22-.47-.01-1.04.47-1.28,1.87-.9,3.5-1.71,4.99-2.5.15-.08.31-.12.47-.12.35,0,.68.19.84.49.12.22.14.47.06.71-.08.25-.25.46-.49.58-1.52.8-3.17,1.62-5.05,2.53-.14.07-.29.1-.44.1Z"/>
          <path class="cls-24" d="M47.57,30.74c.24,0,.47.12.59.34.17.32.03.73-.31.91-1.67.87-3.35,1.71-5.04,2.52-.1.05-.21.07-.31.07-.25,0-.49-.13-.6-.37-.16-.33,0-.73.34-.9,1.68-.81,3.35-1.64,5-2.5.11-.06.22-.08.33-.08M47.57,30.18c-.21,0-.41.05-.6.15-1.5.79-3.13,1.6-4.98,2.49-.63.3-.9,1.04-.61,1.65.2.43.63.69,1.11.69.19,0,.39-.04.56-.13,1.88-.9,3.53-1.73,5.06-2.53.3-.16.53-.43.63-.75.1-.31.07-.64-.09-.93-.21-.4-.63-.64-1.09-.64h0Z"/>
        </g>
        <g>
          <path class="cls-15" d="M50.05,29.45c-.28,0-.54-.12-.71-.32-.34-.4-.28-1,.13-1.35,1.56-1.34,2.93-2.55,4.18-3.7.19-.17.43-.26.68-.26.26,0,.51.1.68.29.17.18.26.42.25.67-.01.26-.13.51-.33.69-1.27,1.17-2.65,2.39-4.23,3.74-.18.16-.41.24-.65.24Z"/>
          <path class="cls-24" d="M54.33,24.09c.18,0,.35.07.48.2.25.27.22.7-.06.96-1.38,1.27-2.8,2.51-4.22,3.73-.14.12-.3.17-.46.17-.19,0-.37-.08-.49-.22-.24-.28-.19-.7.1-.95,1.42-1.21,2.82-2.44,4.19-3.7.14-.13.31-.19.48-.19M54.33,23.53h0c-.32,0-.63.12-.87.34-1.25,1.15-2.61,2.36-4.17,3.69-.53.45-.6,1.24-.16,1.75.23.27.57.42.93.42.3,0,.6-.11.84-.31,1.58-1.35,2.97-2.58,4.24-3.75.25-.23.4-.55.42-.89.01-.33-.1-.64-.32-.88-.23-.24-.55-.38-.89-.38h0Z"/>
        </g>
        <g>
          <path class="cls-18" d="M19.7,34.36c-1.57-.28-3.05-1.01-4.41-2.19-.36-.3-.4-.9-.08-1.34.19-.26.46-.41.75-.41.18,0,.35.06.48.17,1.17,1.01,2.42,1.64,3.72,1.87.19.03.36.14.48.31.15.21.2.49.14.78-.1.47-.5.82-.95.82-.01,0-.11,0-.13,0Z"/>
          <path class="cls-24" d="M15.96,30.71c.11,0,.22.04.3.11,1.13.98,2.43,1.68,3.86,1.93.29.04.46.38.38.74-.08.35-.36.59-.67.59-.03,0-.06,0-.08,0-1.62-.28-3.05-1.08-4.26-2.12-.25-.21-.26-.65-.04-.95.14-.19.34-.29.52-.29M15.96,30.14h0c-.38,0-.73.19-.98.52-.41.55-.35,1.33.14,1.73,1.39,1.2,2.91,1.96,4.53,2.25.07.01.13.01.18.01.58,0,1.1-.44,1.23-1.04.08-.36.01-.72-.18-1-.16-.24-.4-.39-.68-.43-1.24-.22-2.44-.83-3.57-1.8-.2-.16-.43-.25-.68-.25h0Z"/>
        </g>
        <g>
          <path class="cls-17" d="M12.6,29.29c-.17,0-.34-.04-.5-.13-1.65-.93-3.12-2.28-4.39-4-.16-.21-.23-.49-.19-.75.04-.25.18-.47.38-.61.16-.11.34-.17.53-.17.3,0,.6.15.79.4,1.11,1.52,2.39,2.69,3.79,3.48.44.23.62.8.41,1.27-.15.32-.46.51-.83.51Z"/>
          <path class="cls-24" d="M8.44,23.92c.21,0,.42.1.56.28,1.06,1.45,2.36,2.7,3.88,3.55.31.17.44.57.29.9-.1.23-.33.35-.57.35-.12,0-.25-.03-.37-.1-1.72-.97-3.15-2.37-4.29-3.92-.24-.32-.17-.75.13-.96.11-.08.24-.12.37-.12M8.44,23.35c-.25,0-.49.07-.69.22-.27.18-.45.47-.5.8-.05.34.03.69.25.97,1.28,1.75,2.79,3.12,4.47,4.07.21.11.43.17.65.17.47,0,.89-.26,1.08-.68.28-.6.04-1.33-.54-1.64-1.36-.77-2.61-1.91-3.69-3.39-.25-.33-.63-.52-1.02-.52h0Z"/>
        </g>
        <g>
          <path class="cls-19" d="M28.33,37.13c-1.59,0-3.06-.31-4.36-.93-.23-.11-.4-.31-.47-.55-.07-.25-.04-.5.08-.72.12-.22.3-.38.52-.46.1-.04.21-.06.33-.06.12,0,.24.03.34.08,1.09.52,2.32.78,3.68.78.23,0,.47,0,.7-.02h0c.52,0,.89.38.9.87,0,.51-.39.95-.9,1-.28.02-.55.03-.82.03Z"/>
          <path class="cls-24" d="M24.42,34.69c.07,0,.15.02.22.05,1.16.55,2.47.81,3.8.81.24,0,.48,0,.72-.02.02,0,.03,0,.05,0,.3,0,.54.25.55.59,0,.36-.28.68-.64.71-.26.02-.53.03-.79.03-1.47,0-2.92-.28-4.24-.91-.16-.08-.27-.21-.32-.37-.04-.17-.03-.35.06-.51.09-.16.22-.27.36-.32.07-.03.15-.05.23-.05M24.42,34.12c-.15,0-.3.03-.44.09-.27.1-.5.31-.65.59-.15.29-.19.61-.11.92.1.33.32.59.62.74,1.35.64,2.86.96,4.49.96.28,0,.55,0,.83-.03.66-.06,1.18-.63,1.17-1.29-.01-.64-.5-1.15-1.12-1.15-.02,0-.08,0-.1,0-.22.01-.44.02-.67.02-1.31,0-2.51-.25-3.56-.75-.14-.07-.3-.1-.46-.1h0Z"/>
        </g>
      </g>
      <g>
        <path class="cls-9" d="M38.78,35.04c.23,0,.45.16.52.38.04.12.02.24-.04.34-.06.1-.16.17-.27.19-1.79.37-3.41.69-5.12.88-.02,0-.04,0-.06,0-.25,0-.48-.19-.53-.43-.02-.12,0-.24.07-.33.07-.09.17-.15.29-.16,1.68-.19,3.34-.51,5.04-.86.03,0,.06,0,.1,0M38.78,34.87s-.09,0-.13.01c-1.68.34-3.35.68-5.03.86-.34.04-.57.35-.51.69.06.32.36.57.7.57.03,0,.05,0,.08,0,1.75-.19,3.45-.53,5.13-.88.35-.07.54-.41.44-.75-.09-.3-.38-.51-.68-.51h0Z"/>
        <path class="cls-9" d="M47.57,30.92c.19,0,.35.1.44.25.06.11.07.24.03.36-.04.14-.14.25-.27.32-1.52.8-3.17,1.62-5.04,2.52-.08.04-.16.06-.24.06-.2,0-.37-.1-.45-.27-.12-.24,0-.54.26-.67,1.86-.89,3.5-1.71,5-2.5.08-.04.17-.06.26-.06M47.57,30.74c-.11,0-.23.03-.33.08-1.65.86-3.32,1.69-5,2.5-.34.17-.5.57-.34.9.11.23.35.37.6.37.1,0,.21-.02.31-.07,1.69-.81,3.37-1.65,5.04-2.52.34-.18.48-.59.31-.91-.12-.22-.35-.34-.59-.34h0Z"/>
        <path class="cls-9" d="M54.33,24.27h0c.14,0,.26.05.35.15.09.09.13.21.12.34,0,.14-.07.27-.18.37-1.26,1.16-2.64,2.38-4.22,3.73-.1.09-.23.13-.35.13-.14,0-.28-.06-.36-.16-.17-.21-.14-.53.08-.71,1.57-1.34,2.94-2.55,4.19-3.71.1-.09.23-.14.37-.14M54.33,24.09c-.17,0-.34.06-.48.19-1.37,1.26-2.77,2.49-4.19,3.7-.29.25-.34.68-.1.95.13.15.31.22.49.22.16,0,.33-.06.46-.17,1.43-1.22,2.84-2.46,4.22-3.73.29-.26.31-.69.06-.96-.13-.14-.3-.2-.48-.2h0Z"/>
        <path class="cls-9" d="M15.96,30.88h0c.07,0,.14.02.19.07,1.23,1.06,2.55,1.73,3.94,1.97.09.01.15.07.18.12.07.11.1.26.06.42-.06.26-.27.46-.51.46-.02,0-.04,0-.06,0-1.48-.26-2.88-.96-4.18-2.09-.18-.15-.18-.48-.01-.72.1-.14.24-.22.38-.22M15.96,30.71c-.18,0-.38.1-.52.29-.22.3-.21.74.04.95,1.21,1.05,2.65,1.84,4.26,2.12.03,0,.06,0,.08,0,.31,0,.6-.25.67-.59.08-.36-.09-.7-.38-.74-1.43-.25-2.73-.95-3.86-1.93-.09-.07-.19-.11-.3-.11h0Z"/>
        <path class="cls-9" d="M8.44,24.09c.16,0,.32.08.42.21,1.15,1.56,2.47,2.78,3.94,3.6.23.12.33.43.21.67-.07.16-.23.25-.41.25-.1,0-.19-.03-.28-.07-1.59-.89-3.01-2.2-4.24-3.87-.09-.12-.13-.26-.1-.4.02-.13.09-.24.19-.31.08-.06.18-.09.27-.09M8.44,23.92c-.13,0-.26.04-.37.12-.3.2-.37.64-.13.96,1.14,1.55,2.57,2.95,4.29,3.92.12.06.25.1.37.1.24,0,.46-.12.57-.35.15-.32.02-.73-.29-.9-1.52-.86-2.82-2.11-3.88-3.55-.14-.18-.35-.28-.56-.28h0Z"/>
        <path class="cls-9" d="M24.42,34.86c.05,0,.1.01.14.03,1.15.55,2.46.82,3.87.82.24,0,.49,0,.77-.03.21,0,.37.18.38.42,0,.27-.21.51-.48.53-.26.02-.52.03-.78.03-1.52,0-2.92-.3-4.16-.89-.11-.05-.2-.15-.23-.26-.03-.13-.02-.26.05-.38.06-.11.16-.2.28-.25.06-.02.11-.03.16-.03M24.42,34.69c-.08,0-.15.02-.23.05-.14.05-.28.16-.36.32-.09.16-.1.34-.06.51.05.16.16.29.32.37,1.32.63,2.77.91,4.24.91.26,0,.53,0,.79-.03.36-.03.64-.35.64-.71,0-.34-.25-.59-.55-.59-.02,0-.03,0-.05,0-.24.02-.48.02-.72.02-1.33,0-2.64-.26-3.8-.81-.07-.03-.14-.05-.22-.05h0Z"/>
      </g>
    </g>
  </g>
</svg>