<?xml version="1.0" encoding="UTF-8"?>
<svg xmlns="http://www.w3.org/2000/svg" xmlns:xlink="http://www.w3.org/1999/xlink" viewBox="0 0 41.16 37.34">
  <defs>
    <style>
      .cls-1 {
        fill: url(#linear-gradient-3);
      }

      .cls-2 {
        fill: url(#linear-gradient-2);
      }

      .cls-3 {
        fill: #fff;
      }

      .cls-3, .cls-4, .cls-5, .cls-6 {
        mix-blend-mode: overlay;
      }

      .cls-7 {
        fill: url(#linear-gradient);
      }

      .cls-8 {
        isolation: isolate;
      }

      .cls-4 {
        fill: url(#linear-gradient-4);
      }

      .cls-5 {
        fill: url(#linear-gradient-5);
      }

      .cls-6 {
        fill: #13151c;
        opacity: .43;
      }

      .cls-9 {
        fill: #16111a;
      }
    </style>
    <linearGradient id="linear-gradient" x1="43.85" y1="12.05" x2="-17.9" y2="31.84" gradientUnits="userSpaceOnUse">
      <stop offset=".11" stop-color="#31293c"/>
      <stop offset="1" stop-color="#35293d"/>
    </linearGradient>
    <linearGradient id="linear-gradient-2" x1="538.1" y1="29.07" x2="528.36" y2="32.19" gradientTransform="translate(545.75) rotate(-180) scale(1 -1)" xlink:href="#linear-gradient"/>
    <linearGradient id="linear-gradient-3" x1="16.88" y1="27.7" x2="5.69" y2="31.29" xlink:href="#linear-gradient"/>
    <linearGradient id="linear-gradient-4" x1="599.32" y1="4.07" x2="601.04" y2="26.91" gradientTransform="translate(618.69) rotate(-180) scale(1 -1)" gradientUnits="userSpaceOnUse">
      <stop offset="0" stop-color="#fff"/>
      <stop offset=".83" stop-color="#fff" stop-opacity="0"/>
    </linearGradient>
    <linearGradient id="linear-gradient-5" x1="23.87" y1="37.17" x2="24.1" y2="22.79" gradientUnits="userSpaceOnUse">
      <stop offset=".27" stop-color="#fff"/>
      <stop offset=".83" stop-color="#fff" stop-opacity="0"/>
    </linearGradient>
  </defs>
  <g class="cls-8">
    <g id="Layer_2" data-name="Layer 2">
      <g id="Layer_1-2" data-name="Layer 1">
        <g>
          <g>
            <g>
              <path class="cls-7" d="M30.23,35.29c-.26,0-.5-.14-.62-.38-.02-.04-2.1-4.01-5.17-4.41-.14-.02-.27-.03-.41-.03-2.85,0-5.43,3.62-5.45,3.66-.13.19-.34.29-.57.29-.06,0-.11,0-.17-.02-.28-.07-.48-.31-.52-.59,0-.06-.8-6.43-5.61-7.22-.29-.05-.58-.07-.88-.07-4.59,0-8.77,5.77-8.81,5.83-.13.18-.34.29-.56.29-.06,0-.12,0-.19-.03-.28-.08-.48-.33-.5-.62C-.76,11.42,19.2,1.2,20.05.78c.1-.05.21-.08.32-.08.15,0,.3.05.42.14.21.16.32.42.27.68-.01.06-1.2,6.2,3.33,13.04,1.53,2.32,4.22,4.06,8.01,5.17,3.8,1.12,7.34,1.15,7.38,1.15.38,0,.69.31.69.69v3.65c-.01.31-.22.58-.52.66-7.27,2.06-9.03,8.81-9.05,8.87-.07.28-.31.49-.59.52-.03,0-.05,0-.08,0Z"/>
              <path class="cls-9" d="M20.38,1.38s-1.34,6.37,3.43,13.56c1.91,2.9,5.26,4.53,8.39,5.45,3.94,1.16,7.57,1.18,7.57,1.18v3.65c-7.75,2.19-9.54,9.37-9.54,9.37,0,0-2.22-4.32-5.7-4.78-.17-.02-.33-.03-.5-.03-3.26,0-6.02,3.95-6.02,3.95,0,0-.78-6.93-6.19-7.83-.33-.06-.66-.08-.99-.08-5.01,0-9.38,6.12-9.38,6.12C-.04,11.71,19.57,1.79,20.36,1.4h.02M20.38,0c-.21,0-.42.05-.62.15h-.02C18.87.59-1.48,11.02.09,32.05c.04.58.45,1.07,1.01,1.23.12.03.25.05.37.05.44,0,.86-.21,1.13-.58.04-.05,4.02-5.54,8.25-5.54.26,0,.51.02.76.06,4.29.71,5.03,6.56,5.04,6.62.07.57.48,1.04,1.04,1.18.11.03.23.04.34.04.44,0,.87-.21,1.13-.59.66-.93,2.82-3.36,4.88-3.36.11,0,.21,0,.32.02,2.24.29,4.11,3.01,4.64,4.04.24.46.72.75,1.23.75.05,0,.11,0,.16,0,.57-.07,1.04-.48,1.18-1.04.07-.26,1.73-6.44,8.56-8.37.59-.17,1.01-.71,1.01-1.33v-3.65c.01-.77-.6-1.39-1.37-1.39-.03,0-3.49-.03-7.18-1.12-3.63-1.06-6.19-2.71-7.63-4.88-4.36-6.58-3.24-12.46-3.23-12.52.1-.52-.1-1.05-.52-1.38-.25-.19-.55-.29-.84-.29h0ZM20.38,2.77h0,0Z"/>
            </g>
            <path class="cls-6" d="M39.78,21.57v3.65c-7.75,2.19-9.54,9.37-9.54,9.37,0,0-2.22-4.32-5.7-4.78-3.47-.44-6.52,3.92-6.52,3.92,0,0-.78-6.93-6.19-7.83-5.41-.91-10.36,6.04-10.36,6.04C-.04,11.71,19.57,1.79,20.36,1.4c-4.42,4.63-12.37,14.79-2.73,20.12,6.22,3.43,11.16,1.63,14.58-1.11,3.94,1.16,7.57,1.18,7.57,1.18Z"/>
            <g>
              <path class="cls-2" d="M11.72,36.84c-.81,0-1.55-.58-1.87-1.48-.27-.75-.05-1.89.23-3.33.19-.97.4-2.08.47-3.15.12-1.99-.34-4.39-.34-4.41-.03-.16.02-.32.13-.44.09-.1.23-.16.36-.16.02,0,.05,0,.07,0l2.15.31c.14.02.27.1.35.22.08.12.1.27.06.41-.01.04-1.06,3.97-.02,7.79.54,1.96.16,3.01-.25,3.55-.34.44-.81.68-1.33.68Z"/>
              <path class="cls-9" d="M10.69,24.38l2.15.31s-1.11,4.05-.02,8.05c.68,2.49-.18,3.6-1.1,3.6-.56,0-1.13-.4-1.4-1.15-.4-1.1.57-3.7.72-6.28.12-2.08-.35-4.54-.35-4.54M10.69,23.39c-.27,0-.53.11-.72.31-.22.23-.32.56-.26.88,0,.02.45,2.36.34,4.29-.06,1.04-.27,2.13-.46,3.08-.29,1.51-.53,2.71-.21,3.59.4,1.1,1.32,1.81,2.34,1.81.67,0,1.3-.32,1.73-.88.48-.63.92-1.83.33-3.98-1.01-3.69,0-7.48.02-7.52.08-.28.03-.57-.13-.81-.16-.24-.41-.4-.69-.44l-2.15-.31s-.1-.01-.14-.01h0Z"/>
            </g>
          </g>
          <path class="cls-1" d="M14.91,25.21l-.55,1.73s-.96-.91-1.45-.21c-.37.51-.51,1.84-.56,2.47.01,1.11.15,2.33.48,3.54.97,3.55-1.2,4.29-2.19,3.01-.13-.16-.25-.34-.32-.56-.39-1.1.58-3.7.72-6.27.01-.21.01-.4.02-.61-.04-.54-.1-1.19-.23-1.63-.06-.21-.13-.37-.23-.47-.51-.5-1.27-.22-1.27-.22l-.38-2.25s.67-.66.8-.78c.13-.13,3.71.02,4.19.18.49.16.98,2.07.98,2.07Z"/>
          <path class="cls-6" d="M14.91,25.21l-.55,1.73s-.96-.91-1.45-.21c-.37.51-.51,1.84-.56,2.47.01,1.11.15,2.33.48,3.54.97,3.55-1.2,4.29-2.19,3.01.4.01.85-.1,1.21-.53.92-1.08.21-3.12,0-5.51-.16-1.67-.43-2.84-1.02-3.04-.06-.21-.13-.37-.23-.47-.51-.5-1.27-.22-1.27-.22l-.38-2.25s.67-.66.8-.78c.13-.13,3.71.02,4.19.18.49.16.98,2.07.98,2.07Z"/>
          <g>
            <path class="cls-3" d="M1.44,31.33c.02-.16.05-.31.06-.43.18-1.29.06-6.57,4.06-13.45,3.99-6.89,13.65-14.43,13.65-14.43,0,0-.43,10.09,6.25,15.33,5.29,4.15,11.83,4.52,14.33,4.5v-1.26s-2.34-.01-5.32-.62c-3.65-.74-8.26-2.38-10.66-6-4.75-7.19-3.42-13.56-3.42-13.56h-.01C19.79,1.69.35,11.39,1.44,31.33Z"/>
            <path class="cls-4" d="M32.99,22.84s-6.33-1.17-10.04-5.97c-3.7-4.8-4.27-12.33-4.43-12.38s-6.91,5.55-10.48,10.56-5.55,12.49-5.5,12.85,3.91-3.28,7.45-3.18c3.54.1,6.74,2.42,7.36,4.46s.63,3.44.63,3.44c0,0,2.89-4.07,5.75-3.64s5.75,4.11,6.1,3.83,3.15-9.97,3.15-9.97Z"/>
            <ellipse class="cls-3" cx="12.7" cy="10.81" rx="1.72" ry=".96" transform="translate(-3.8 13.19) rotate(-48.61)"/>
            <ellipse class="cls-3" cx="11.87" cy="13.47" rx="1.02" ry=".6" transform="translate(-6.09 13.47) rotate(-48.61)"/>
            <path class="cls-5" d="M13.42,25.78s2.49,1.24,3.57,2.95,1.17,4.33,1.17,4.33c0,0,2.71-4.69,7.17-3.68s4.9,4.13,4.9,4.13c0,0,.55-2.57,1.97-4.16s2.12-1.98,2.12-1.98l.4-3.96"/>
          </g>
        </g>
      </g>
    </g>
  </g>
</svg>