<?xml version="1.0" encoding="UTF-8"?>
<svg xmlns="http://www.w3.org/2000/svg" xmlns:xlink="http://www.w3.org/1999/xlink" viewBox="0 0 41.49 40.22">
  <defs>
    <style>
      .cls-1 {
        fill: url(#linear-gradient-5);
      }

      .cls-2 {
        fill: url(#linear-gradient-6);
      }

      .cls-3 {
        fill: url(#linear-gradient-3);
      }

      .cls-4 {
        fill: url(#linear-gradient-2);
      }

      .cls-5 {
        fill: #fff;
      }

      .cls-5, .cls-6, .cls-7, .cls-8 {
        mix-blend-mode: overlay;
      }

      .cls-9 {
        fill: url(#linear-gradient);
      }

      .cls-10 {
        isolation: isolate;
      }

      .cls-6 {
        fill: url(#linear-gradient-4);
      }

      .cls-7 {
        fill: url(#linear-gradient-7);
      }

      .cls-8 {
        fill: #13151c;
        opacity: .43;
      }

      .cls-11 {
        fill: #16111a;
      }
    </style>
    <linearGradient id="linear-gradient" x1="42.36" y1="12.77" x2="-14.64" y2="31.04" gradientUnits="userSpaceOnUse">
      <stop offset=".11" stop-color="#31293c"/>
      <stop offset="1" stop-color="#35293d"/>
    </linearGradient>
    <linearGradient id="linear-gradient-2" x1="23.07" y1="32.04" x2="10.68" y2="36.01" xlink:href="#linear-gradient"/>
    <linearGradient id="linear-gradient-3" x1="23.95" y1="30.86" x2="10.64" y2="35.12" xlink:href="#linear-gradient"/>
    <linearGradient id="linear-gradient-4" x1="21.8" y1="4.06" x2="23.52" y2="26.9" gradientUnits="userSpaceOnUse">
      <stop offset="0" stop-color="#fff"/>
      <stop offset=".83" stop-color="#fff" stop-opacity="0"/>
    </linearGradient>
    <linearGradient id="linear-gradient-5" x1="42.37" y1="32.06" x2="33.91" y2="34.77" xlink:href="#linear-gradient"/>
    <linearGradient id="linear-gradient-6" x1="41.85" y1="30.62" x2="34.11" y2="33.1" xlink:href="#linear-gradient"/>
    <linearGradient id="linear-gradient-7" x1="22.52" y1="39.03" x2="20.18" y2="19.48" xlink:href="#linear-gradient-4"/>
  </defs>
  <g class="cls-10">
    <g id="Layer_2" data-name="Layer 2">
      <g id="Layer_1-2" data-name="Layer 1">
        <g>
          <g>
            <path class="cls-9" d="M10.85,35.28c-.29-.03-.52-.24-.59-.52-.07-.28-1.8-6.82-9.05-8.88-.3-.08-.5-.35-.5-.66v-2.39s-.01-1.27-.01-1.27c0-.38.31-.69.69-.69.02,0,2.31-.02,5.18-.61,3.39-.68,7.92-2.23,10.22-5.71,4.52-6.84,3.33-12.98,3.32-13.04-.06-.3.08-.61.36-.75.1-.05.21-.08.32-.08.14,0,.27.04.39.12,1.5.76,20.33,10.79,19.25,30.55,0,.12-.01.28-.02.43v.2c-.03.29-.23.54-.51.62-.06.02-.13.03-.19.03-.22,0-.43-.1-.56-.29-.04-.06-4.22-5.83-8.8-5.83-.29,0-.59.02-.87.07-4.84.8-5.62,7.16-5.62,7.22-.03.29-.24.52-.52.59-.06.01-.11.02-.17.02-.22,0-.44-.11-.57-.3-.03-.04-2.59-3.66-5.45-3.66-.14,0-.27,0-.41.03-3.08.4-5.15,4.37-5.17,4.41-.12.23-.36.38-.62.38-.03,0-.05,0-.08,0Z"/>
            <path class="cls-11" d="M20.78,1.38h.01c.59.31,20.03,10.01,18.94,29.94,0,.21-.02.42-.04.62,0,0-4.36-6.12-9.37-6.12-.33,0-.66.03-.99.08-5.41.89-6.2,7.83-6.2,7.83,0,0-2.75-3.95-6.02-3.95-.17,0-.33.01-.5.03-3.48.45-5.7,4.78-5.7,4.78,0,0-1.79-7.18-9.53-9.37v-2.39s-.01-1.26-.01-1.26c0,0,2.34-.01,5.32-.62,3.65-.74,8.26-2.38,10.66-6,4.75-7.19,3.42-13.56,3.42-13.56M20.78,0c-.22,0-.45.05-.65.16-.54.29-.83.89-.7,1.49.02.08,1.12,5.95-3.22,12.52-2.17,3.28-6.52,4.75-9.78,5.41-2.8.58-5.03.6-5.05.6-.76,0-1.38.62-1.38,1.39v3.66c.02.62.43,1.16,1.02,1.33,6.84,1.94,8.5,8.12,8.57,8.38.14.56.62.97,1.19,1.03.05,0,.1,0,.16,0,.51,0,.99-.29,1.23-.75.53-1.02,2.4-3.74,4.64-4.04.1-.01.21-.02.32-.02,2.07,0,4.23,2.43,4.88,3.36.26.38.69.59,1.14.59.11,0,.23-.01.34-.04.56-.14.97-.61,1.03-1.19,0-.06.75-5.91,5.05-6.62.25-.04.51-.06.76-.06,3.52,0,7.14,4,8.24,5.54.26.37.69.58,1.13.58.13,0,.26-.02.38-.05.56-.16.97-.66,1-1.25v-.18c.03-.16.04-.32.04-.48C42.21,11.01,22.67.79,21.44.17c-.21-.11-.43-.17-.66-.17h0Z"/>
          </g>
          <path class="cls-8" d="M39.69,31.94s-4.95-6.95-10.35-6.04c-5.41.89-6.2,7.83-6.2,7.83,0,0-3.04-4.36-6.52-3.92-3.48.45-5.7,4.78-5.7,4.78,0,0-1.79-7.18-9.53-9.37v-3.65s2.33-.01,5.3-.62c3.39,3.43,8.77,6.52,14.41.38,9.19-10,.07-19.54-.32-19.93.6.29,20.43,10.21,18.9,30.55Z"/>
          <g>
            <path class="cls-4" d="M16.57,39.73c-.4,0-.75-.17-1.01-.48-.52-.63-.59-1.84-.23-3.58.81-3.88-.22-6.13-.23-6.15-.07-.15-.06-.32.02-.46.08-.14.22-.24.38-.25,0,0,4.7-.5,4.72-.5.16,0,.31.08.41.21.1.15.12.34.05.5,0,0-.35.79-.22,2.01.03.29.09.59.14.89.17.91.33,1.76-.13,2.32-.23.28-.58.42-1.03.42h0c-.65-.03-.98-.37-1.15-.83.01.28.03.54.04.79.13,2.33.19,3.78-.27,4.34-.4.48-.97.78-1.49.78Z"/>
            <path class="cls-11" d="M20.23,28.8h0M20.23,28.8s-.41.88-.26,2.27c.14,1.36.85,3.08-.52,3.08-.02,0-.05,0-.08,0-1.47-.06-.09-3.6-1.17-3.6,0,0,0,0,0,0-1.09.02.27,7.14-.51,8.08-.28.34-.71.6-1.11.6-.7,0-1.3-.82-.75-3.46.86-4.13-.27-6.47-.27-6.47l4.67-.5M20.23,27.8h0s-.08,0-.12,0l-4.65.5c-.32.03-.61.22-.77.51s-.17.63-.03.92c0,.01.96,2.14.19,5.83-.4,1.92-.29,3.23.33,4,.35.43.84.67,1.39.67.67,0,1.39-.37,1.88-.96.55-.66.54-1.92.41-4.19.14.04.29.07.46.07.04,0,.08,0,.12,0,.75,0,1.18-.33,1.41-.6.61-.73.42-1.75.24-2.73-.05-.29-.11-.59-.14-.85-.1-.94.12-1.58.17-1.73.07-.13.1-.28.1-.44,0-.55-.44-1-.99-1h0ZM20.23,29.79h0,0Z"/>
          </g>
          <path class="cls-3" d="M21.05,31.48c-.22-.18-.71-.96-.77-.96-.04.01-.15.39-.23.69v.02s-.02.07-.04.11c.13.92.43,1.92.16,2.44-.13.25-.38.38-.81.37-1.47-.07-.07-3.63-1.18-3.6-1.09.02.28,7.13-.5,8.09-.5.6-1.47.96-1.87.05-.23-.51-.29-1.42.02-2.92,0-.02.01-.06.01-.09.38-1.83.36-3.27.22-4.34-.09-.55-.23-1.26-.47-1.27-.38-.01-1.18.59-1.18.59l-1.49-1.73s.71-.69.97-.89c.27-.22,6.1-.75,6.84-.75s.85.92,1.1,1.29c.26.38-.55,3.07-.78,2.9Z"/>
          <path class="cls-8" d="M20.17,33.78c-.13.25-.38.38-.81.37-1.47-.07-.07-3.63-1.18-3.6-1.09.02.28,7.13-.5,8.09-.5.6-1.47.96-1.87.05.43.17.86.21,1.21-.01,1.2-.75-.4-7.51.65-8.5,1.05-1,1.51.89,1.37,2.54-.07.85.51,1.1,1.13,1.08Z"/>
          <path class="cls-8" d="M21.05,31.48c-.22-.18-.71-.96-.77-.96-.04.01-.15.39-.23.69-.16-.58-.93-3.04-2.35-2.51-1.6.6-1.35,1.81-1.25,4.04.06,1.52-.33,2.49-.6,2.94.38-1.83.36-3.27.22-4.34-.09-.55-.23-1.26-.47-1.27-.38-.01-1.18.59-1.18.59l-1.49-1.73s.71-.69.97-.89c.27-.22,6.1-.75,6.84-.75s.85.92,1.1,1.29c.26.38-.55,3.07-.78,2.9Z"/>
          <g>
            <path class="cls-5" d="M39.73,31.32c-.02-.16-.05-.31-.06-.43-.18-1.29-.06-6.57-4.06-13.45-3.99-6.89-13.65-14.43-13.65-14.43,0,0,.43,10.09-6.25,15.33-5.29,4.15-11.83,4.52-14.33,4.5v-1.26s2.34-.01,5.32-.62c3.65-.74,8.26-2.38,10.66-6,4.75-7.19,3.42-13.56,3.42-13.56h.01c.59.31,20.03,10.01,18.94,29.94Z"/>
            <path class="cls-6" d="M8.18,22.83s6.33-1.17,10.04-5.97,4.27-12.33,4.43-12.38,6.91,5.55,10.48,10.56,5.55,12.49,5.5,12.85-3.91-3.28-7.45-3.18-6.74,2.42-7.36,4.46-.63,3.44-.63,3.44c0,0-2.89-4.07-5.75-3.64s-5.75,4.11-6.1,3.83-3.15-9.97-3.15-9.97Z"/>
            <ellipse class="cls-5" cx="28.47" cy="10.8" rx=".96" ry="1.72" transform="translate(-.03 21.52) rotate(-41.39)"/>
            <ellipse class="cls-5" cx="29.3" cy="13.47" rx=".6" ry="1.02" transform="translate(-1.58 22.74) rotate(-41.39)"/>
          </g>
          <g>
            <path class="cls-1" d="M38.9,38.97c-.46,0-.87-.21-1.17-.59-.38-.5-.72-1.51-.18-3.49,1.04-3.78.04-6.04.03-6.06-.1-.22-.03-.49.18-.62l1.52-1.01c.08-.06.18-.08.28-.08.07,0,.13.01.19.04.15.06.27.2.3.37.15.8,1.48,7.86.74,9.9-.34.94-1.08,1.55-1.87,1.55h0Z"/>
            <path class="cls-11" d="M39.54,27.61s1.47,7.66.76,9.64c-.28.78-.87,1.22-1.4,1.22-.82,0-1.53-1.03-.87-3.45,1.09-4,0-6.4,0-6.4l1.52-1.01M39.54,26.61c-.19,0-.39.06-.55.17l-1.52,1.01c-.41.27-.56.8-.35,1.24,0,.01.92,2.17-.05,5.72-.59,2.17-.18,3.33.27,3.92.38.5.95.79,1.56.79,1.01,0,1.93-.74,2.34-1.88.77-2.13-.46-8.84-.72-10.17-.06-.33-.29-.6-.59-.73-.12-.05-.25-.08-.38-.08h0Z"/>
          </g>
          <path class="cls-2" d="M40.29,37.25c-.06.17-.15.33-.23.48-.23.36-.54.6-.85.7-.94.28-1.94-.69-1.19-3.41.27-.97.39-1.84.45-2.61-.09-.55-.39-2.22-1.2-3.1-.98-1.07-1.65-1.45-1.65-1.45l.65-2.29s1.52-.86,2.47-.65c.33.07.59.27.69.67.2.72.37,2.17.5,3.5h0c.09.82.15,1.58.18,2.12.32,2.27.56,4.96.17,6.03Z"/>
          <path class="cls-8" d="M40.06,37.73c-.92,1.43-3.03.93-2.03-2.71.27-.97.39-1.84.45-2.61-.09-.55-.39-2.22-1.2-3.1-.98-1.07-1.65-1.45-1.65-1.45l.65-2.29s2.74-1.56,3.16.02c.2.72.37,2.17.5,3.5-.44-.61-.93-1.03-1.34-.56-.88,1.04.72,2.32.36,4.2-.37,1.9-1.45,4.69.37,5.01.26.04.5.04.74-.02Z"/>
          <path class="cls-5" d="M40.29,37.25c-.06.17-.15.33-.23.48-.23.36-.54.6-.85.7.2-.21.37-.48.5-.81.67-1.62.13-5.45-.05-6.73-.11-.76-.11-2.92-.92-5.97.33.07.59.27.69.67.2.72.37,2.17.5,3.5h0c.09.82.15,1.58.18,2.12.32,2.27.56,4.96.17,6.03Z"/>
          <path class="cls-7" d="M2.97,25.02s3.44,1.39,5.43,3.42,2.72,4.65,2.72,4.65c0,0,1.27-1.41,2.93-2.76s2.07-.66,2.07-.66c0,0,.53,3.23.22,5.18s-.82,3.15.1,3.62,1.06-1.09.94-2.6-.63-5.34.47-6.1,1.35,1.47,1.17,2.68.7,1.27.9.9-.23-2.27-.04-3.01.29-.9.29-.9c0,0,2.5,3.01,2.58,3.03s.49-5.22,5.12-6.96,9.11,2.15,10.11,3.69.78,3.79.35,5.67-.25,3.03.59,2.95.63-3.23.47-6.96-3.07-11.51-6.74-16.21"/>
        </g>
      </g>
    </g>
  </g>
</svg>